<mxfile host="65bd71144e" modified="2020-11-11T04:18:31.144Z" agent="5.0 (Macintosh; Intel Mac OS X 10_15_7) AppleWebKit/537.36 (KHTML, like Gecko) Code/1.51.0 Chrome/83.0.4103.122 Electron/9.3.3 Safari/537.36" etag="fmx9p51AKinZ_xxtmQJk" version="13.6.5" pages="20">
    <diagram id="MGaN42u6uROctUQz8c4m" name="Page-1">
        <mxGraphModel dx="1402" dy="860" grid="1" gridSize="10" guides="1" tooltips="1" connect="1" arrows="1" fold="1" page="1" pageScale="1" pageWidth="800" pageHeight="800" math="0" shadow="0">
            <root>
                <mxCell id="0"/>
                <mxCell id="1" parent="0"/>
                <mxCell id="2" value="5" style="ellipse;whiteSpace=wrap;html=1;aspect=fixed;fontFamily=Fira Code;" parent="1" vertex="1">
                    <mxGeometry x="400" y="40" width="40" height="40" as="geometry"/>
                </mxCell>
            </root>
        </mxGraphModel>
    </diagram>
    <diagram name="Copy of Page-1" id="Mq2pI6Ogdp_JJeWRbLhf">
        <mxGraphModel dx="1402" dy="860" grid="1" gridSize="10" guides="1" tooltips="1" connect="1" arrows="1" fold="1" page="1" pageScale="1" pageWidth="800" pageHeight="800" math="0" shadow="0">
            <root>
                <mxCell id="5yjm-24eAHWpC0gy7UhC-0"/>
                <mxCell id="5yjm-24eAHWpC0gy7UhC-1" parent="5yjm-24eAHWpC0gy7UhC-0"/>
                <mxCell id="5yjm-24eAHWpC0gy7UhC-2" value="5" style="ellipse;whiteSpace=wrap;html=1;aspect=fixed;fontFamily=Fira Code;" parent="5yjm-24eAHWpC0gy7UhC-1" vertex="1">
                    <mxGeometry x="400" y="40" width="40" height="40" as="geometry"/>
                </mxCell>
                <mxCell id="DI0dJ3IEex73YjJbuaP9-0" style="rounded=0;orthogonalLoop=1;jettySize=auto;html=1;exitX=0;exitY=0;exitDx=0;exitDy=0;entryX=1;entryY=1;entryDx=0;entryDy=0;endArrow=none;endFill=0;" parent="5yjm-24eAHWpC0gy7UhC-1" source="5yjm-24eAHWpC0gy7UhC-4" target="5yjm-24eAHWpC0gy7UhC-2" edge="1">
                    <mxGeometry relative="1" as="geometry"/>
                </mxCell>
                <mxCell id="5yjm-24eAHWpC0gy7UhC-4" value="10" style="ellipse;whiteSpace=wrap;html=1;aspect=fixed;fontFamily=Fira Code;fillColor=#CC0000;" parent="5yjm-24eAHWpC0gy7UhC-1" vertex="1">
                    <mxGeometry x="640" y="120" width="40" height="40" as="geometry"/>
                </mxCell>
            </root>
        </mxGraphModel>
    </diagram>
    <diagram name="Copy of Copy of Page-1" id="DrcHI793B6h2_U7d_HQO">
        <mxGraphModel dx="1402" dy="860" grid="1" gridSize="10" guides="1" tooltips="1" connect="1" arrows="1" fold="1" page="1" pageScale="1" pageWidth="800" pageHeight="800" math="0" shadow="0">
            <root>
                <mxCell id="4P_bgpWL29R8PX8N0fjZ-0"/>
                <mxCell id="4P_bgpWL29R8PX8N0fjZ-1" parent="4P_bgpWL29R8PX8N0fjZ-0"/>
                <mxCell id="4P_bgpWL29R8PX8N0fjZ-2" value="5" style="ellipse;whiteSpace=wrap;html=1;aspect=fixed;fontFamily=Fira Code;" parent="4P_bgpWL29R8PX8N0fjZ-1" vertex="1">
                    <mxGeometry x="400" y="40" width="40" height="40" as="geometry"/>
                </mxCell>
                <mxCell id="4P_bgpWL29R8PX8N0fjZ-3" style="rounded=0;orthogonalLoop=1;jettySize=auto;html=1;exitX=0;exitY=0;exitDx=0;exitDy=0;entryX=1;entryY=1;entryDx=0;entryDy=0;endArrow=none;endFill=0;" parent="4P_bgpWL29R8PX8N0fjZ-1" source="4P_bgpWL29R8PX8N0fjZ-4" target="4P_bgpWL29R8PX8N0fjZ-2" edge="1">
                    <mxGeometry relative="1" as="geometry"/>
                </mxCell>
                <mxCell id="4P_bgpWL29R8PX8N0fjZ-6" style="rounded=0;orthogonalLoop=1;jettySize=auto;html=1;exitX=1;exitY=1;exitDx=0;exitDy=0;entryX=0;entryY=0;entryDx=0;entryDy=0;endArrow=none;endFill=0;" parent="4P_bgpWL29R8PX8N0fjZ-1" source="4P_bgpWL29R8PX8N0fjZ-4" target="4P_bgpWL29R8PX8N0fjZ-5" edge="1">
                    <mxGeometry relative="1" as="geometry"/>
                </mxCell>
                <mxCell id="4P_bgpWL29R8PX8N0fjZ-4" value="10" style="ellipse;whiteSpace=wrap;html=1;aspect=fixed;fontFamily=Fira Code;fillColor=#CC0000;" parent="4P_bgpWL29R8PX8N0fjZ-1" vertex="1">
                    <mxGeometry x="640" y="120" width="40" height="40" as="geometry"/>
                </mxCell>
                <mxCell id="4P_bgpWL29R8PX8N0fjZ-5" value="20" style="ellipse;whiteSpace=wrap;html=1;aspect=fixed;fontFamily=Fira Code;fillColor=#CC0000;" parent="4P_bgpWL29R8PX8N0fjZ-1" vertex="1">
                    <mxGeometry x="840" y="200" width="40" height="40" as="geometry"/>
                </mxCell>
            </root>
        </mxGraphModel>
    </diagram>
    <diagram name="Copy of Copy of Copy of Page-1" id="OK62gOHxz2tp0HU3cLu1">
        <mxGraphModel dx="1402" dy="860" grid="1" gridSize="10" guides="1" tooltips="1" connect="1" arrows="1" fold="1" page="1" pageScale="1" pageWidth="800" pageHeight="800" math="0" shadow="0">
            <root>
                <mxCell id="uIbnFHPIPPBE6GXspMYj-0"/>
                <mxCell id="uIbnFHPIPPBE6GXspMYj-1" parent="uIbnFHPIPPBE6GXspMYj-0"/>
                <mxCell id="h6pdEGo9Pnng7OTdzgyr-1" style="edgeStyle=none;rounded=0;orthogonalLoop=1;jettySize=auto;html=1;exitX=1;exitY=1;exitDx=0;exitDy=0;entryX=0;entryY=0;entryDx=0;entryDy=0;endArrow=none;endFill=0;" parent="uIbnFHPIPPBE6GXspMYj-1" source="uIbnFHPIPPBE6GXspMYj-2" target="uIbnFHPIPPBE6GXspMYj-6" edge="1">
                    <mxGeometry relative="1" as="geometry"/>
                </mxCell>
                <mxCell id="uIbnFHPIPPBE6GXspMYj-2" value="10" style="ellipse;whiteSpace=wrap;html=1;aspect=fixed;fontFamily=Fira Code;fillColor=#CC0000;" parent="uIbnFHPIPPBE6GXspMYj-1" vertex="1">
                    <mxGeometry x="400" y="40" width="40" height="40" as="geometry"/>
                </mxCell>
                <mxCell id="h6pdEGo9Pnng7OTdzgyr-0" style="edgeStyle=none;rounded=0;orthogonalLoop=1;jettySize=auto;html=1;exitX=1;exitY=0;exitDx=0;exitDy=0;entryX=0;entryY=1;entryDx=0;entryDy=0;endArrow=none;endFill=0;" parent="uIbnFHPIPPBE6GXspMYj-1" source="uIbnFHPIPPBE6GXspMYj-5" target="uIbnFHPIPPBE6GXspMYj-2" edge="1">
                    <mxGeometry relative="1" as="geometry"/>
                </mxCell>
                <mxCell id="uIbnFHPIPPBE6GXspMYj-5" value="5" style="ellipse;whiteSpace=wrap;html=1;aspect=fixed;fontFamily=Fira Code;fillColor=#000000;" parent="uIbnFHPIPPBE6GXspMYj-1" vertex="1">
                    <mxGeometry x="160" y="120" width="40" height="40" as="geometry"/>
                </mxCell>
                <mxCell id="uIbnFHPIPPBE6GXspMYj-6" value="20" style="ellipse;whiteSpace=wrap;html=1;aspect=fixed;fontFamily=Fira Code;fillColor=#CC0000;" parent="uIbnFHPIPPBE6GXspMYj-1" vertex="1">
                    <mxGeometry x="640" y="120" width="40" height="40" as="geometry"/>
                </mxCell>
            </root>
        </mxGraphModel>
    </diagram>
    <diagram name="Copy of Copy of Copy of Copy of Page-1" id="IF5VwpO8eYysRFanNNU8">
        <mxGraphModel dx="1402" dy="860" grid="1" gridSize="10" guides="1" tooltips="1" connect="1" arrows="1" fold="1" page="1" pageScale="1" pageWidth="800" pageHeight="800" math="0" shadow="0">
            <root>
                <mxCell id="m8hd-Dg2VaMZuWuGj3Gr-0"/>
                <mxCell id="m8hd-Dg2VaMZuWuGj3Gr-1" parent="m8hd-Dg2VaMZuWuGj3Gr-0"/>
                <mxCell id="m8hd-Dg2VaMZuWuGj3Gr-2" style="edgeStyle=none;rounded=0;orthogonalLoop=1;jettySize=auto;html=1;exitX=1;exitY=1;exitDx=0;exitDy=0;entryX=0;entryY=0;entryDx=0;entryDy=0;endArrow=none;endFill=0;" parent="m8hd-Dg2VaMZuWuGj3Gr-1" source="m8hd-Dg2VaMZuWuGj3Gr-3" target="m8hd-Dg2VaMZuWuGj3Gr-6" edge="1">
                    <mxGeometry relative="1" as="geometry"/>
                </mxCell>
                <mxCell id="m8hd-Dg2VaMZuWuGj3Gr-3" value="10" style="ellipse;whiteSpace=wrap;html=1;aspect=fixed;fontFamily=Fira Code;fillColor=#000000;" parent="m8hd-Dg2VaMZuWuGj3Gr-1" vertex="1">
                    <mxGeometry x="400" y="40" width="40" height="40" as="geometry"/>
                </mxCell>
                <mxCell id="m8hd-Dg2VaMZuWuGj3Gr-4" style="edgeStyle=none;rounded=0;orthogonalLoop=1;jettySize=auto;html=1;exitX=1;exitY=0;exitDx=0;exitDy=0;entryX=0;entryY=1;entryDx=0;entryDy=0;endArrow=none;endFill=0;" parent="m8hd-Dg2VaMZuWuGj3Gr-1" source="m8hd-Dg2VaMZuWuGj3Gr-5" target="m8hd-Dg2VaMZuWuGj3Gr-3" edge="1">
                    <mxGeometry relative="1" as="geometry"/>
                </mxCell>
                <mxCell id="m8hd-Dg2VaMZuWuGj3Gr-5" value="5" style="ellipse;whiteSpace=wrap;html=1;aspect=fixed;fontFamily=Fira Code;fillColor=#CC0000;" parent="m8hd-Dg2VaMZuWuGj3Gr-1" vertex="1">
                    <mxGeometry x="160" y="120" width="40" height="40" as="geometry"/>
                </mxCell>
                <mxCell id="m8hd-Dg2VaMZuWuGj3Gr-6" value="20" style="ellipse;whiteSpace=wrap;html=1;aspect=fixed;fontFamily=Fira Code;fillColor=#CC0000;" parent="m8hd-Dg2VaMZuWuGj3Gr-1" vertex="1">
                    <mxGeometry x="640" y="120" width="40" height="40" as="geometry"/>
                </mxCell>
            </root>
        </mxGraphModel>
    </diagram>
    <diagram name="Copy of Copy of Copy of Copy of Copy of Page-1" id="ubH7yMz_GVwSigK_-dQC">
        <mxGraphModel dx="1402" dy="860" grid="1" gridSize="10" guides="1" tooltips="1" connect="1" arrows="1" fold="1" page="1" pageScale="1" pageWidth="800" pageHeight="800" math="0" shadow="0">
            <root>
                <mxCell id="_KEcswkYA9oIN1XtXfUa-0"/>
                <mxCell id="_KEcswkYA9oIN1XtXfUa-1" parent="_KEcswkYA9oIN1XtXfUa-0"/>
                <mxCell id="_KEcswkYA9oIN1XtXfUa-2" style="edgeStyle=none;rounded=0;orthogonalLoop=1;jettySize=auto;html=1;exitX=1;exitY=1;exitDx=0;exitDy=0;entryX=0;entryY=0;entryDx=0;entryDy=0;endArrow=none;endFill=0;" parent="_KEcswkYA9oIN1XtXfUa-1" source="_KEcswkYA9oIN1XtXfUa-3" target="_KEcswkYA9oIN1XtXfUa-6" edge="1">
                    <mxGeometry relative="1" as="geometry"/>
                </mxCell>
                <mxCell id="_KEcswkYA9oIN1XtXfUa-3" value="10" style="ellipse;whiteSpace=wrap;html=1;aspect=fixed;fontFamily=Fira Code;fillColor=#000000;" parent="_KEcswkYA9oIN1XtXfUa-1" vertex="1">
                    <mxGeometry x="400" y="40" width="40" height="40" as="geometry"/>
                </mxCell>
                <mxCell id="_KEcswkYA9oIN1XtXfUa-4" style="edgeStyle=none;rounded=0;orthogonalLoop=1;jettySize=auto;html=1;exitX=1;exitY=0;exitDx=0;exitDy=0;entryX=0;entryY=1;entryDx=0;entryDy=0;endArrow=none;endFill=0;" parent="_KEcswkYA9oIN1XtXfUa-1" source="_KEcswkYA9oIN1XtXfUa-5" target="_KEcswkYA9oIN1XtXfUa-3" edge="1">
                    <mxGeometry relative="1" as="geometry"/>
                </mxCell>
                <mxCell id="_KEcswkYA9oIN1XtXfUa-5" value="5" style="ellipse;whiteSpace=wrap;html=1;aspect=fixed;fontFamily=Fira Code;fillColor=#CC0000;" parent="_KEcswkYA9oIN1XtXfUa-1" vertex="1">
                    <mxGeometry x="160" y="120" width="40" height="40" as="geometry"/>
                </mxCell>
                <mxCell id="_KEcswkYA9oIN1XtXfUa-8" style="edgeStyle=none;rounded=0;orthogonalLoop=1;jettySize=auto;html=1;exitX=1;exitY=1;exitDx=0;exitDy=0;entryX=0;entryY=0;entryDx=0;entryDy=0;endArrow=none;endFill=0;" parent="_KEcswkYA9oIN1XtXfUa-1" source="_KEcswkYA9oIN1XtXfUa-6" target="_KEcswkYA9oIN1XtXfUa-7" edge="1">
                    <mxGeometry relative="1" as="geometry"/>
                </mxCell>
                <mxCell id="_KEcswkYA9oIN1XtXfUa-6" value="20" style="ellipse;whiteSpace=wrap;html=1;aspect=fixed;fontFamily=Fira Code;fillColor=#CC0000;" parent="_KEcswkYA9oIN1XtXfUa-1" vertex="1">
                    <mxGeometry x="640" y="120" width="40" height="40" as="geometry"/>
                </mxCell>
                <mxCell id="_KEcswkYA9oIN1XtXfUa-7" value="30" style="ellipse;whiteSpace=wrap;html=1;aspect=fixed;fontFamily=Fira Code;fillColor=#CC0000;" parent="_KEcswkYA9oIN1XtXfUa-1" vertex="1">
                    <mxGeometry x="840" y="200" width="40" height="40" as="geometry"/>
                </mxCell>
            </root>
        </mxGraphModel>
    </diagram>
    <diagram name="Copy of Copy of Copy of Copy of Copy of Copy of Page-1" id="KJb_PGQea38nCClB_W0f">
        <mxGraphModel dx="1402" dy="860" grid="1" gridSize="10" guides="1" tooltips="1" connect="1" arrows="1" fold="1" page="1" pageScale="1" pageWidth="800" pageHeight="800" math="0" shadow="0">
            <root>
                <mxCell id="QWQIcspa5xx1Co239hrX-0"/>
                <mxCell id="QWQIcspa5xx1Co239hrX-1" parent="QWQIcspa5xx1Co239hrX-0"/>
                <mxCell id="QWQIcspa5xx1Co239hrX-2" style="edgeStyle=none;rounded=0;orthogonalLoop=1;jettySize=auto;html=1;exitX=1;exitY=1;exitDx=0;exitDy=0;entryX=0;entryY=0;entryDx=0;entryDy=0;endArrow=none;endFill=0;" parent="QWQIcspa5xx1Co239hrX-1" source="QWQIcspa5xx1Co239hrX-3" target="QWQIcspa5xx1Co239hrX-7" edge="1">
                    <mxGeometry relative="1" as="geometry"/>
                </mxCell>
                <mxCell id="QWQIcspa5xx1Co239hrX-3" value="10" style="ellipse;whiteSpace=wrap;html=1;aspect=fixed;fontFamily=Fira Code;fillColor=#CC0000;" parent="QWQIcspa5xx1Co239hrX-1" vertex="1">
                    <mxGeometry x="400" y="40" width="40" height="40" as="geometry"/>
                </mxCell>
                <mxCell id="QWQIcspa5xx1Co239hrX-4" style="edgeStyle=none;rounded=0;orthogonalLoop=1;jettySize=auto;html=1;exitX=1;exitY=0;exitDx=0;exitDy=0;entryX=0;entryY=1;entryDx=0;entryDy=0;endArrow=none;endFill=0;" parent="QWQIcspa5xx1Co239hrX-1" source="QWQIcspa5xx1Co239hrX-5" target="QWQIcspa5xx1Co239hrX-3" edge="1">
                    <mxGeometry relative="1" as="geometry"/>
                </mxCell>
                <mxCell id="QWQIcspa5xx1Co239hrX-5" value="5" style="ellipse;whiteSpace=wrap;html=1;aspect=fixed;fontFamily=Fira Code;fillColor=#000000;" parent="QWQIcspa5xx1Co239hrX-1" vertex="1">
                    <mxGeometry x="160" y="120" width="40" height="40" as="geometry"/>
                </mxCell>
                <mxCell id="QWQIcspa5xx1Co239hrX-6" style="edgeStyle=none;rounded=0;orthogonalLoop=1;jettySize=auto;html=1;exitX=1;exitY=1;exitDx=0;exitDy=0;entryX=0;entryY=0;entryDx=0;entryDy=0;endArrow=none;endFill=0;" parent="QWQIcspa5xx1Co239hrX-1" source="QWQIcspa5xx1Co239hrX-7" target="QWQIcspa5xx1Co239hrX-8" edge="1">
                    <mxGeometry relative="1" as="geometry"/>
                </mxCell>
                <mxCell id="QWQIcspa5xx1Co239hrX-7" value="20" style="ellipse;whiteSpace=wrap;html=1;aspect=fixed;fontFamily=Fira Code;fillColor=#000000;" parent="QWQIcspa5xx1Co239hrX-1" vertex="1">
                    <mxGeometry x="640" y="120" width="40" height="40" as="geometry"/>
                </mxCell>
                <mxCell id="QWQIcspa5xx1Co239hrX-8" value="30" style="ellipse;whiteSpace=wrap;html=1;aspect=fixed;fontFamily=Fira Code;fillColor=#CC0000;" parent="QWQIcspa5xx1Co239hrX-1" vertex="1">
                    <mxGeometry x="840" y="200" width="40" height="40" as="geometry"/>
                </mxCell>
            </root>
        </mxGraphModel>
    </diagram>
    <diagram name="Copy of Copy of Copy of Copy of Copy of Copy of Copy of Page-1" id="3j5D0hBwKNYEZLkeMhb-">
        <mxGraphModel dx="1402" dy="860" grid="1" gridSize="10" guides="1" tooltips="1" connect="1" arrows="1" fold="1" page="1" pageScale="1" pageWidth="800" pageHeight="800" math="0" shadow="0">
            <root>
                <mxCell id="tN3MHKRjiQIlMMa3mOTY-0"/>
                <mxCell id="tN3MHKRjiQIlMMa3mOTY-1" parent="tN3MHKRjiQIlMMa3mOTY-0"/>
                <mxCell id="tN3MHKRjiQIlMMa3mOTY-2" style="edgeStyle=none;rounded=0;orthogonalLoop=1;jettySize=auto;html=1;exitX=1;exitY=1;exitDx=0;exitDy=0;entryX=0;entryY=0;entryDx=0;entryDy=0;endArrow=none;endFill=0;" parent="tN3MHKRjiQIlMMa3mOTY-1" source="tN3MHKRjiQIlMMa3mOTY-3" target="tN3MHKRjiQIlMMa3mOTY-7" edge="1">
                    <mxGeometry relative="1" as="geometry"/>
                </mxCell>
                <mxCell id="tN3MHKRjiQIlMMa3mOTY-3" value="10" style="ellipse;whiteSpace=wrap;html=1;aspect=fixed;fontFamily=Fira Code;fillColor=#000000;" parent="tN3MHKRjiQIlMMa3mOTY-1" vertex="1">
                    <mxGeometry x="400" y="40" width="40" height="40" as="geometry"/>
                </mxCell>
                <mxCell id="tN3MHKRjiQIlMMa3mOTY-4" style="edgeStyle=none;rounded=0;orthogonalLoop=1;jettySize=auto;html=1;exitX=1;exitY=0;exitDx=0;exitDy=0;entryX=0;entryY=1;entryDx=0;entryDy=0;endArrow=none;endFill=0;" parent="tN3MHKRjiQIlMMa3mOTY-1" source="tN3MHKRjiQIlMMa3mOTY-5" target="tN3MHKRjiQIlMMa3mOTY-3" edge="1">
                    <mxGeometry relative="1" as="geometry"/>
                </mxCell>
                <mxCell id="tN3MHKRjiQIlMMa3mOTY-5" value="5" style="ellipse;whiteSpace=wrap;html=1;aspect=fixed;fontFamily=Fira Code;fillColor=#000000;" parent="tN3MHKRjiQIlMMa3mOTY-1" vertex="1">
                    <mxGeometry x="160" y="120" width="40" height="40" as="geometry"/>
                </mxCell>
                <mxCell id="tN3MHKRjiQIlMMa3mOTY-6" style="edgeStyle=none;rounded=0;orthogonalLoop=1;jettySize=auto;html=1;exitX=1;exitY=1;exitDx=0;exitDy=0;entryX=0;entryY=0;entryDx=0;entryDy=0;endArrow=none;endFill=0;" parent="tN3MHKRjiQIlMMa3mOTY-1" source="tN3MHKRjiQIlMMa3mOTY-7" target="tN3MHKRjiQIlMMa3mOTY-8" edge="1">
                    <mxGeometry relative="1" as="geometry"/>
                </mxCell>
                <mxCell id="tN3MHKRjiQIlMMa3mOTY-7" value="20" style="ellipse;whiteSpace=wrap;html=1;aspect=fixed;fontFamily=Fira Code;fillColor=#000000;" parent="tN3MHKRjiQIlMMa3mOTY-1" vertex="1">
                    <mxGeometry x="640" y="120" width="40" height="40" as="geometry"/>
                </mxCell>
                <mxCell id="tN3MHKRjiQIlMMa3mOTY-8" value="30" style="ellipse;whiteSpace=wrap;html=1;aspect=fixed;fontFamily=Fira Code;fillColor=#CC0000;" parent="tN3MHKRjiQIlMMa3mOTY-1" vertex="1">
                    <mxGeometry x="840" y="200" width="40" height="40" as="geometry"/>
                </mxCell>
            </root>
        </mxGraphModel>
    </diagram>
    <diagram name="Copy of Copy of Copy of Copy of Copy of Copy of Copy of Copy of Page-1" id="uW-Af12v479egVli-rjb">
        <mxGraphModel dx="1402" dy="860" grid="1" gridSize="10" guides="1" tooltips="1" connect="1" arrows="1" fold="1" page="1" pageScale="1" pageWidth="800" pageHeight="800" math="0" shadow="0">
            <root>
                <mxCell id="47X11x4P5ydj2Z_Ek0V6-0"/>
                <mxCell id="47X11x4P5ydj2Z_Ek0V6-1" parent="47X11x4P5ydj2Z_Ek0V6-0"/>
                <mxCell id="47X11x4P5ydj2Z_Ek0V6-2" style="edgeStyle=none;rounded=0;orthogonalLoop=1;jettySize=auto;html=1;exitX=1;exitY=1;exitDx=0;exitDy=0;entryX=0;entryY=0;entryDx=0;entryDy=0;endArrow=none;endFill=0;" parent="47X11x4P5ydj2Z_Ek0V6-1" source="47X11x4P5ydj2Z_Ek0V6-3" target="47X11x4P5ydj2Z_Ek0V6-7" edge="1">
                    <mxGeometry relative="1" as="geometry"/>
                </mxCell>
                <mxCell id="47X11x4P5ydj2Z_Ek0V6-3" value="10" style="ellipse;whiteSpace=wrap;html=1;aspect=fixed;fontFamily=Fira Code;fillColor=#000000;" parent="47X11x4P5ydj2Z_Ek0V6-1" vertex="1">
                    <mxGeometry x="400" y="40" width="40" height="40" as="geometry"/>
                </mxCell>
                <mxCell id="47X11x4P5ydj2Z_Ek0V6-4" style="edgeStyle=none;rounded=0;orthogonalLoop=1;jettySize=auto;html=1;exitX=1;exitY=0;exitDx=0;exitDy=0;entryX=0;entryY=1;entryDx=0;entryDy=0;endArrow=none;endFill=0;" parent="47X11x4P5ydj2Z_Ek0V6-1" source="47X11x4P5ydj2Z_Ek0V6-5" target="47X11x4P5ydj2Z_Ek0V6-3" edge="1">
                    <mxGeometry relative="1" as="geometry"/>
                </mxCell>
                <mxCell id="47X11x4P5ydj2Z_Ek0V6-5" value="5" style="ellipse;whiteSpace=wrap;html=1;aspect=fixed;fontFamily=Fira Code;fillColor=#000000;" parent="47X11x4P5ydj2Z_Ek0V6-1" vertex="1">
                    <mxGeometry x="160" y="120" width="40" height="40" as="geometry"/>
                </mxCell>
                <mxCell id="47X11x4P5ydj2Z_Ek0V6-6" style="edgeStyle=none;rounded=0;orthogonalLoop=1;jettySize=auto;html=1;exitX=1;exitY=1;exitDx=0;exitDy=0;entryX=0;entryY=0;entryDx=0;entryDy=0;endArrow=none;endFill=0;" parent="47X11x4P5ydj2Z_Ek0V6-1" source="47X11x4P5ydj2Z_Ek0V6-7" target="47X11x4P5ydj2Z_Ek0V6-8" edge="1">
                    <mxGeometry relative="1" as="geometry"/>
                </mxCell>
                <mxCell id="47X11x4P5ydj2Z_Ek0V6-7" value="20" style="ellipse;whiteSpace=wrap;html=1;aspect=fixed;fontFamily=Fira Code;fillColor=#000000;" parent="47X11x4P5ydj2Z_Ek0V6-1" vertex="1">
                    <mxGeometry x="640" y="120" width="40" height="40" as="geometry"/>
                </mxCell>
                <mxCell id="47X11x4P5ydj2Z_Ek0V6-10" style="edgeStyle=none;rounded=0;orthogonalLoop=1;jettySize=auto;html=1;exitX=1;exitY=1;exitDx=0;exitDy=0;entryX=0;entryY=0;entryDx=0;entryDy=0;endArrow=none;endFill=0;" parent="47X11x4P5ydj2Z_Ek0V6-1" source="47X11x4P5ydj2Z_Ek0V6-8" target="47X11x4P5ydj2Z_Ek0V6-9" edge="1">
                    <mxGeometry relative="1" as="geometry"/>
                </mxCell>
                <mxCell id="47X11x4P5ydj2Z_Ek0V6-8" value="30" style="ellipse;whiteSpace=wrap;html=1;aspect=fixed;fontFamily=Fira Code;fillColor=#CC0000;" parent="47X11x4P5ydj2Z_Ek0V6-1" vertex="1">
                    <mxGeometry x="840" y="200" width="40" height="40" as="geometry"/>
                </mxCell>
                <mxCell id="47X11x4P5ydj2Z_Ek0V6-9" value="40" style="ellipse;whiteSpace=wrap;html=1;aspect=fixed;fontFamily=Fira Code;fillColor=#CC0000;" parent="47X11x4P5ydj2Z_Ek0V6-1" vertex="1">
                    <mxGeometry x="1000" y="280" width="40" height="40" as="geometry"/>
                </mxCell>
            </root>
        </mxGraphModel>
    </diagram>
    <diagram name="Copy of Copy of Copy of Copy of Copy of Copy of Copy of Copy of Copy of Page-1" id="zbeB73HV44ymWQXp4oFs">
        <mxGraphModel dx="1402" dy="860" grid="1" gridSize="10" guides="1" tooltips="1" connect="1" arrows="1" fold="1" page="1" pageScale="1" pageWidth="800" pageHeight="800" math="0" shadow="0">
            <root>
                <mxCell id="UTg9s2_cmGWETIRwkmUP-0"/>
                <mxCell id="UTg9s2_cmGWETIRwkmUP-1" parent="UTg9s2_cmGWETIRwkmUP-0"/>
                <mxCell id="UTg9s2_cmGWETIRwkmUP-2" style="edgeStyle=none;rounded=0;orthogonalLoop=1;jettySize=auto;html=1;exitX=1;exitY=1;exitDx=0;exitDy=0;entryX=0;entryY=0;entryDx=0;entryDy=0;endArrow=none;endFill=0;" parent="UTg9s2_cmGWETIRwkmUP-1" source="UTg9s2_cmGWETIRwkmUP-3" target="UTg9s2_cmGWETIRwkmUP-7" edge="1">
                    <mxGeometry relative="1" as="geometry"/>
                </mxCell>
                <mxCell id="UTg9s2_cmGWETIRwkmUP-3" value="10" style="ellipse;whiteSpace=wrap;html=1;aspect=fixed;fontFamily=Fira Code;fillColor=#000000;" parent="UTg9s2_cmGWETIRwkmUP-1" vertex="1">
                    <mxGeometry x="400" y="40" width="40" height="40" as="geometry"/>
                </mxCell>
                <mxCell id="UTg9s2_cmGWETIRwkmUP-4" style="edgeStyle=none;rounded=0;orthogonalLoop=1;jettySize=auto;html=1;exitX=1;exitY=0;exitDx=0;exitDy=0;entryX=0;entryY=1;entryDx=0;entryDy=0;endArrow=none;endFill=0;" parent="UTg9s2_cmGWETIRwkmUP-1" source="UTg9s2_cmGWETIRwkmUP-5" target="UTg9s2_cmGWETIRwkmUP-3" edge="1">
                    <mxGeometry relative="1" as="geometry"/>
                </mxCell>
                <mxCell id="UTg9s2_cmGWETIRwkmUP-5" value="5" style="ellipse;whiteSpace=wrap;html=1;aspect=fixed;fontFamily=Fira Code;fillColor=#000000;" parent="UTg9s2_cmGWETIRwkmUP-1" vertex="1">
                    <mxGeometry x="160" y="120" width="40" height="40" as="geometry"/>
                </mxCell>
                <mxCell id="UTg9s2_cmGWETIRwkmUP-6" style="edgeStyle=none;rounded=0;orthogonalLoop=1;jettySize=auto;html=1;exitX=0;exitY=1;exitDx=0;exitDy=0;entryX=1;entryY=0;entryDx=0;entryDy=0;endArrow=none;endFill=0;" parent="UTg9s2_cmGWETIRwkmUP-1" source="UTg9s2_cmGWETIRwkmUP-7" target="UTg9s2_cmGWETIRwkmUP-9" edge="1">
                    <mxGeometry relative="1" as="geometry"/>
                </mxCell>
                <mxCell id="JpcukMvSpndbA76tDeJC-1" style="edgeStyle=none;rounded=0;orthogonalLoop=1;jettySize=auto;html=1;exitX=1;exitY=1;exitDx=0;exitDy=0;entryX=0;entryY=0;entryDx=0;entryDy=0;endArrow=none;endFill=0;" parent="UTg9s2_cmGWETIRwkmUP-1" source="UTg9s2_cmGWETIRwkmUP-7" target="UTg9s2_cmGWETIRwkmUP-10" edge="1">
                    <mxGeometry relative="1" as="geometry"/>
                </mxCell>
                <mxCell id="UTg9s2_cmGWETIRwkmUP-7" value="30" style="ellipse;whiteSpace=wrap;html=1;aspect=fixed;fontFamily=Fira Code;fillColor=#CC0000;" parent="UTg9s2_cmGWETIRwkmUP-1" vertex="1">
                    <mxGeometry x="640" y="120" width="40" height="40" as="geometry"/>
                </mxCell>
                <mxCell id="UTg9s2_cmGWETIRwkmUP-9" value="20" style="ellipse;whiteSpace=wrap;html=1;aspect=fixed;fontFamily=Fira Code;fillColor=#000000;" parent="UTg9s2_cmGWETIRwkmUP-1" vertex="1">
                    <mxGeometry x="440" y="200" width="40" height="40" as="geometry"/>
                </mxCell>
                <mxCell id="UTg9s2_cmGWETIRwkmUP-10" value="40" style="ellipse;whiteSpace=wrap;html=1;aspect=fixed;fontFamily=Fira Code;fillColor=#CC0000;" parent="UTg9s2_cmGWETIRwkmUP-1" vertex="1">
                    <mxGeometry x="840" y="200" width="40" height="40" as="geometry"/>
                </mxCell>
            </root>
        </mxGraphModel>
    </diagram>
    <diagram name="Copy of Copy of Copy of Copy of Copy of Copy of Copy of Copy of Copy of Copy of Page-1" id="zXIKqs2jvtIqZFOvtTy9">
        <mxGraphModel dx="1402" dy="860" grid="1" gridSize="10" guides="1" tooltips="1" connect="1" arrows="1" fold="1" page="1" pageScale="1" pageWidth="800" pageHeight="800" math="0" shadow="0">
            <root>
                <mxCell id="5SvRn5RdMZZr7ssULTgz-0"/>
                <mxCell id="5SvRn5RdMZZr7ssULTgz-1" parent="5SvRn5RdMZZr7ssULTgz-0"/>
                <mxCell id="5SvRn5RdMZZr7ssULTgz-2" style="edgeStyle=none;rounded=0;orthogonalLoop=1;jettySize=auto;html=1;exitX=1;exitY=1;exitDx=0;exitDy=0;entryX=0;entryY=0;entryDx=0;entryDy=0;endArrow=none;endFill=0;" parent="5SvRn5RdMZZr7ssULTgz-1" source="5SvRn5RdMZZr7ssULTgz-3" target="5SvRn5RdMZZr7ssULTgz-8" edge="1">
                    <mxGeometry relative="1" as="geometry"/>
                </mxCell>
                <mxCell id="5SvRn5RdMZZr7ssULTgz-3" value="10" style="ellipse;whiteSpace=wrap;html=1;aspect=fixed;fontFamily=Fira Code;fillColor=#000000;" parent="5SvRn5RdMZZr7ssULTgz-1" vertex="1">
                    <mxGeometry x="400" y="40" width="40" height="40" as="geometry"/>
                </mxCell>
                <mxCell id="5SvRn5RdMZZr7ssULTgz-4" style="edgeStyle=none;rounded=0;orthogonalLoop=1;jettySize=auto;html=1;exitX=1;exitY=0;exitDx=0;exitDy=0;entryX=0;entryY=1;entryDx=0;entryDy=0;endArrow=none;endFill=0;" parent="5SvRn5RdMZZr7ssULTgz-1" source="5SvRn5RdMZZr7ssULTgz-5" target="5SvRn5RdMZZr7ssULTgz-3" edge="1">
                    <mxGeometry relative="1" as="geometry"/>
                </mxCell>
                <mxCell id="5SvRn5RdMZZr7ssULTgz-5" value="5" style="ellipse;whiteSpace=wrap;html=1;aspect=fixed;fontFamily=Fira Code;fillColor=#000000;" parent="5SvRn5RdMZZr7ssULTgz-1" vertex="1">
                    <mxGeometry x="160" y="120" width="40" height="40" as="geometry"/>
                </mxCell>
                <mxCell id="5SvRn5RdMZZr7ssULTgz-6" style="edgeStyle=none;rounded=0;orthogonalLoop=1;jettySize=auto;html=1;exitX=0;exitY=1;exitDx=0;exitDy=0;entryX=1;entryY=0;entryDx=0;entryDy=0;endArrow=none;endFill=0;" parent="5SvRn5RdMZZr7ssULTgz-1" source="5SvRn5RdMZZr7ssULTgz-8" target="5SvRn5RdMZZr7ssULTgz-9" edge="1">
                    <mxGeometry relative="1" as="geometry"/>
                </mxCell>
                <mxCell id="5SvRn5RdMZZr7ssULTgz-7" style="edgeStyle=none;rounded=0;orthogonalLoop=1;jettySize=auto;html=1;exitX=1;exitY=1;exitDx=0;exitDy=0;entryX=0;entryY=0;entryDx=0;entryDy=0;endArrow=none;endFill=0;" parent="5SvRn5RdMZZr7ssULTgz-1" source="5SvRn5RdMZZr7ssULTgz-8" target="5SvRn5RdMZZr7ssULTgz-10" edge="1">
                    <mxGeometry relative="1" as="geometry"/>
                </mxCell>
                <mxCell id="5SvRn5RdMZZr7ssULTgz-8" value="30" style="ellipse;whiteSpace=wrap;html=1;aspect=fixed;fontFamily=Fira Code;fillColor=#000000;" parent="5SvRn5RdMZZr7ssULTgz-1" vertex="1">
                    <mxGeometry x="640" y="120" width="40" height="40" as="geometry"/>
                </mxCell>
                <mxCell id="5SvRn5RdMZZr7ssULTgz-9" value="20" style="ellipse;whiteSpace=wrap;html=1;aspect=fixed;fontFamily=Fira Code;fillColor=#CC0000;" parent="5SvRn5RdMZZr7ssULTgz-1" vertex="1">
                    <mxGeometry x="440" y="200" width="40" height="40" as="geometry"/>
                </mxCell>
                <mxCell id="5SvRn5RdMZZr7ssULTgz-10" value="40" style="ellipse;whiteSpace=wrap;html=1;aspect=fixed;fontFamily=Fira Code;fillColor=#CC0000;" parent="5SvRn5RdMZZr7ssULTgz-1" vertex="1">
                    <mxGeometry x="840" y="200" width="40" height="40" as="geometry"/>
                </mxCell>
            </root>
        </mxGraphModel>
    </diagram>
    <diagram name="Copy of Copy of Copy of Copy of Copy of Copy of Copy of Copy of Copy of Copy of Copy of Page-1" id="BLbyH04bahYIh-vkF3Gm">
        <mxGraphModel dx="1402" dy="860" grid="1" gridSize="10" guides="1" tooltips="1" connect="1" arrows="1" fold="1" page="1" pageScale="1" pageWidth="800" pageHeight="800" math="0" shadow="0">
            <root>
                <mxCell id="2eYMLml-orKXs6Eshbpu-0"/>
                <mxCell id="2eYMLml-orKXs6Eshbpu-1" parent="2eYMLml-orKXs6Eshbpu-0"/>
                <mxCell id="2eYMLml-orKXs6Eshbpu-2" style="edgeStyle=none;rounded=0;orthogonalLoop=1;jettySize=auto;html=1;exitX=1;exitY=1;exitDx=0;exitDy=0;entryX=0;entryY=0;entryDx=0;entryDy=0;endArrow=none;endFill=0;" parent="2eYMLml-orKXs6Eshbpu-1" source="2eYMLml-orKXs6Eshbpu-3" target="2eYMLml-orKXs6Eshbpu-8" edge="1">
                    <mxGeometry relative="1" as="geometry"/>
                </mxCell>
                <mxCell id="2eYMLml-orKXs6Eshbpu-3" value="10" style="ellipse;whiteSpace=wrap;html=1;aspect=fixed;fontFamily=Fira Code;fillColor=#000000;" parent="2eYMLml-orKXs6Eshbpu-1" vertex="1">
                    <mxGeometry x="400" y="40" width="40" height="40" as="geometry"/>
                </mxCell>
                <mxCell id="2eYMLml-orKXs6Eshbpu-4" style="edgeStyle=none;rounded=0;orthogonalLoop=1;jettySize=auto;html=1;exitX=1;exitY=0;exitDx=0;exitDy=0;entryX=0;entryY=1;entryDx=0;entryDy=0;endArrow=none;endFill=0;" parent="2eYMLml-orKXs6Eshbpu-1" source="2eYMLml-orKXs6Eshbpu-5" target="2eYMLml-orKXs6Eshbpu-3" edge="1">
                    <mxGeometry relative="1" as="geometry"/>
                </mxCell>
                <mxCell id="2eYMLml-orKXs6Eshbpu-5" value="5" style="ellipse;whiteSpace=wrap;html=1;aspect=fixed;fontFamily=Fira Code;fillColor=#000000;" parent="2eYMLml-orKXs6Eshbpu-1" vertex="1">
                    <mxGeometry x="160" y="120" width="40" height="40" as="geometry"/>
                </mxCell>
                <mxCell id="2eYMLml-orKXs6Eshbpu-6" style="edgeStyle=none;rounded=0;orthogonalLoop=1;jettySize=auto;html=1;exitX=0;exitY=1;exitDx=0;exitDy=0;entryX=1;entryY=0;entryDx=0;entryDy=0;endArrow=none;endFill=0;" parent="2eYMLml-orKXs6Eshbpu-1" source="2eYMLml-orKXs6Eshbpu-8" target="2eYMLml-orKXs6Eshbpu-9" edge="1">
                    <mxGeometry relative="1" as="geometry"/>
                </mxCell>
                <mxCell id="2eYMLml-orKXs6Eshbpu-7" style="edgeStyle=none;rounded=0;orthogonalLoop=1;jettySize=auto;html=1;exitX=1;exitY=1;exitDx=0;exitDy=0;entryX=0;entryY=0;entryDx=0;entryDy=0;endArrow=none;endFill=0;" parent="2eYMLml-orKXs6Eshbpu-1" source="2eYMLml-orKXs6Eshbpu-8" target="2eYMLml-orKXs6Eshbpu-10" edge="1">
                    <mxGeometry relative="1" as="geometry"/>
                </mxCell>
                <mxCell id="2eYMLml-orKXs6Eshbpu-8" value="30" style="ellipse;whiteSpace=wrap;html=1;aspect=fixed;fontFamily=Fira Code;fillColor=#000000;" parent="2eYMLml-orKXs6Eshbpu-1" vertex="1">
                    <mxGeometry x="640" y="120" width="40" height="40" as="geometry"/>
                </mxCell>
                <mxCell id="2eYMLml-orKXs6Eshbpu-9" value="20" style="ellipse;whiteSpace=wrap;html=1;aspect=fixed;fontFamily=Fira Code;fillColor=#CC0000;" parent="2eYMLml-orKXs6Eshbpu-1" vertex="1">
                    <mxGeometry x="440" y="200" width="40" height="40" as="geometry"/>
                </mxCell>
                <mxCell id="z6Cm8XGpHnBxNaGa1kqE-1" style="edgeStyle=none;rounded=0;orthogonalLoop=1;jettySize=auto;html=1;exitX=1;exitY=1;exitDx=0;exitDy=0;entryX=0;entryY=0;entryDx=0;entryDy=0;endArrow=none;endFill=0;" parent="2eYMLml-orKXs6Eshbpu-1" source="2eYMLml-orKXs6Eshbpu-10" target="z6Cm8XGpHnBxNaGa1kqE-0" edge="1">
                    <mxGeometry relative="1" as="geometry"/>
                </mxCell>
                <mxCell id="2eYMLml-orKXs6Eshbpu-10" value="40" style="ellipse;whiteSpace=wrap;html=1;aspect=fixed;fontFamily=Fira Code;fillColor=#CC0000;" parent="2eYMLml-orKXs6Eshbpu-1" vertex="1">
                    <mxGeometry x="840" y="200" width="40" height="40" as="geometry"/>
                </mxCell>
                <mxCell id="z6Cm8XGpHnBxNaGa1kqE-0" value="50" style="ellipse;whiteSpace=wrap;html=1;aspect=fixed;fontFamily=Fira Code;fillColor=#CC0000;" parent="2eYMLml-orKXs6Eshbpu-1" vertex="1">
                    <mxGeometry x="1000" y="280" width="40" height="40" as="geometry"/>
                </mxCell>
            </root>
        </mxGraphModel>
    </diagram>
    <diagram name="Copy of Copy of Copy of Copy of Copy of Copy of Copy of Copy of Copy of Copy of Copy of Copy of Page-1" id="YKK8XgrAF-J93eBOrX-D">
        <mxGraphModel dx="1402" dy="860" grid="1" gridSize="10" guides="1" tooltips="1" connect="1" arrows="1" fold="1" page="1" pageScale="1" pageWidth="800" pageHeight="800" math="0" shadow="0">
            <root>
                <mxCell id="Xuggn5bxUZ4AQKMJbx46-0"/>
                <mxCell id="Xuggn5bxUZ4AQKMJbx46-1" parent="Xuggn5bxUZ4AQKMJbx46-0"/>
                <mxCell id="Xuggn5bxUZ4AQKMJbx46-2" style="edgeStyle=none;rounded=0;orthogonalLoop=1;jettySize=auto;html=1;exitX=1;exitY=1;exitDx=0;exitDy=0;entryX=0;entryY=0;entryDx=0;entryDy=0;endArrow=none;endFill=0;" parent="Xuggn5bxUZ4AQKMJbx46-1" source="Xuggn5bxUZ4AQKMJbx46-3" target="Xuggn5bxUZ4AQKMJbx46-8" edge="1">
                    <mxGeometry relative="1" as="geometry"/>
                </mxCell>
                <mxCell id="Xuggn5bxUZ4AQKMJbx46-3" value="10" style="ellipse;whiteSpace=wrap;html=1;aspect=fixed;fontFamily=Fira Code;fillColor=#000000;" parent="Xuggn5bxUZ4AQKMJbx46-1" vertex="1">
                    <mxGeometry x="400" y="40" width="40" height="40" as="geometry"/>
                </mxCell>
                <mxCell id="Xuggn5bxUZ4AQKMJbx46-4" style="edgeStyle=none;rounded=0;orthogonalLoop=1;jettySize=auto;html=1;exitX=1;exitY=0;exitDx=0;exitDy=0;entryX=0;entryY=1;entryDx=0;entryDy=0;endArrow=none;endFill=0;" parent="Xuggn5bxUZ4AQKMJbx46-1" source="Xuggn5bxUZ4AQKMJbx46-5" target="Xuggn5bxUZ4AQKMJbx46-3" edge="1">
                    <mxGeometry relative="1" as="geometry"/>
                </mxCell>
                <mxCell id="Xuggn5bxUZ4AQKMJbx46-5" value="5" style="ellipse;whiteSpace=wrap;html=1;aspect=fixed;fontFamily=Fira Code;fillColor=#000000;" parent="Xuggn5bxUZ4AQKMJbx46-1" vertex="1">
                    <mxGeometry x="160" y="120" width="40" height="40" as="geometry"/>
                </mxCell>
                <mxCell id="Xuggn5bxUZ4AQKMJbx46-6" style="edgeStyle=none;rounded=0;orthogonalLoop=1;jettySize=auto;html=1;exitX=0;exitY=1;exitDx=0;exitDy=0;entryX=1;entryY=0;entryDx=0;entryDy=0;endArrow=none;endFill=0;" parent="Xuggn5bxUZ4AQKMJbx46-1" source="Xuggn5bxUZ4AQKMJbx46-8" target="Xuggn5bxUZ4AQKMJbx46-9" edge="1">
                    <mxGeometry relative="1" as="geometry"/>
                </mxCell>
                <mxCell id="Xuggn5bxUZ4AQKMJbx46-7" style="edgeStyle=none;rounded=0;orthogonalLoop=1;jettySize=auto;html=1;exitX=1;exitY=1;exitDx=0;exitDy=0;entryX=0;entryY=0;entryDx=0;entryDy=0;endArrow=none;endFill=0;" parent="Xuggn5bxUZ4AQKMJbx46-1" source="Xuggn5bxUZ4AQKMJbx46-8" target="Xuggn5bxUZ4AQKMJbx46-11" edge="1">
                    <mxGeometry relative="1" as="geometry"/>
                </mxCell>
                <mxCell id="Xuggn5bxUZ4AQKMJbx46-8" value="30" style="ellipse;whiteSpace=wrap;html=1;aspect=fixed;fontFamily=Fira Code;fillColor=#CC0000;" parent="Xuggn5bxUZ4AQKMJbx46-1" vertex="1">
                    <mxGeometry x="640" y="120" width="40" height="40" as="geometry"/>
                </mxCell>
                <mxCell id="Xuggn5bxUZ4AQKMJbx46-9" value="20" style="ellipse;whiteSpace=wrap;html=1;aspect=fixed;fontFamily=Fira Code;fillColor=#000000;" parent="Xuggn5bxUZ4AQKMJbx46-1" vertex="1">
                    <mxGeometry x="440" y="200" width="40" height="40" as="geometry"/>
                </mxCell>
                <mxCell id="Xuggn5bxUZ4AQKMJbx46-10" style="edgeStyle=none;rounded=0;orthogonalLoop=1;jettySize=auto;html=1;exitX=1;exitY=1;exitDx=0;exitDy=0;entryX=0;entryY=0;entryDx=0;entryDy=0;endArrow=none;endFill=0;" parent="Xuggn5bxUZ4AQKMJbx46-1" source="Xuggn5bxUZ4AQKMJbx46-11" target="Xuggn5bxUZ4AQKMJbx46-12" edge="1">
                    <mxGeometry relative="1" as="geometry"/>
                </mxCell>
                <mxCell id="Xuggn5bxUZ4AQKMJbx46-11" value="40" style="ellipse;whiteSpace=wrap;html=1;aspect=fixed;fontFamily=Fira Code;fillColor=#000000;" parent="Xuggn5bxUZ4AQKMJbx46-1" vertex="1">
                    <mxGeometry x="840" y="200" width="40" height="40" as="geometry"/>
                </mxCell>
                <mxCell id="Xuggn5bxUZ4AQKMJbx46-12" value="50" style="ellipse;whiteSpace=wrap;html=1;aspect=fixed;fontFamily=Fira Code;fillColor=#CC0000;" parent="Xuggn5bxUZ4AQKMJbx46-1" vertex="1">
                    <mxGeometry x="1000" y="280" width="40" height="40" as="geometry"/>
                </mxCell>
            </root>
        </mxGraphModel>
    </diagram>
    <diagram name="Copy of Copy of Copy of Copy of Copy of Copy of Copy of Copy of Copy of Copy of Copy of Copy of Copy of Page-1" id="yq-9X8nMPQ2FJH7g7Slx">
        <mxGraphModel dx="1402" dy="860" grid="1" gridSize="10" guides="1" tooltips="1" connect="1" arrows="1" fold="1" page="1" pageScale="1" pageWidth="800" pageHeight="800" math="0" shadow="0">
            <root>
                <mxCell id="OrIN1FlHt5JgkvUlRxeu-0"/>
                <mxCell id="OrIN1FlHt5JgkvUlRxeu-1" parent="OrIN1FlHt5JgkvUlRxeu-0"/>
                <mxCell id="OrIN1FlHt5JgkvUlRxeu-2" style="edgeStyle=none;rounded=0;orthogonalLoop=1;jettySize=auto;html=1;exitX=1;exitY=1;exitDx=0;exitDy=0;entryX=0;entryY=0;entryDx=0;entryDy=0;endArrow=none;endFill=0;" parent="OrIN1FlHt5JgkvUlRxeu-1" source="OrIN1FlHt5JgkvUlRxeu-3" target="OrIN1FlHt5JgkvUlRxeu-8" edge="1">
                    <mxGeometry relative="1" as="geometry"/>
                </mxCell>
                <mxCell id="OrIN1FlHt5JgkvUlRxeu-3" value="10" style="ellipse;whiteSpace=wrap;html=1;aspect=fixed;fontFamily=Fira Code;fillColor=#000000;" parent="OrIN1FlHt5JgkvUlRxeu-1" vertex="1">
                    <mxGeometry x="400" y="40" width="40" height="40" as="geometry"/>
                </mxCell>
                <mxCell id="OrIN1FlHt5JgkvUlRxeu-4" style="edgeStyle=none;rounded=0;orthogonalLoop=1;jettySize=auto;html=1;exitX=1;exitY=0;exitDx=0;exitDy=0;entryX=0;entryY=1;entryDx=0;entryDy=0;endArrow=none;endFill=0;" parent="OrIN1FlHt5JgkvUlRxeu-1" source="OrIN1FlHt5JgkvUlRxeu-5" target="OrIN1FlHt5JgkvUlRxeu-3" edge="1">
                    <mxGeometry relative="1" as="geometry"/>
                </mxCell>
                <mxCell id="OrIN1FlHt5JgkvUlRxeu-5" value="5" style="ellipse;whiteSpace=wrap;html=1;aspect=fixed;fontFamily=Fira Code;fillColor=#000000;" parent="OrIN1FlHt5JgkvUlRxeu-1" vertex="1">
                    <mxGeometry x="160" y="120" width="40" height="40" as="geometry"/>
                </mxCell>
                <mxCell id="OrIN1FlHt5JgkvUlRxeu-6" style="edgeStyle=none;rounded=0;orthogonalLoop=1;jettySize=auto;html=1;exitX=0;exitY=1;exitDx=0;exitDy=0;entryX=1;entryY=0;entryDx=0;entryDy=0;endArrow=none;endFill=0;" parent="OrIN1FlHt5JgkvUlRxeu-1" source="OrIN1FlHt5JgkvUlRxeu-8" target="OrIN1FlHt5JgkvUlRxeu-9" edge="1">
                    <mxGeometry relative="1" as="geometry"/>
                </mxCell>
                <mxCell id="OrIN1FlHt5JgkvUlRxeu-7" style="edgeStyle=none;rounded=0;orthogonalLoop=1;jettySize=auto;html=1;exitX=1;exitY=1;exitDx=0;exitDy=0;entryX=0;entryY=0;entryDx=0;entryDy=0;endArrow=none;endFill=0;" parent="OrIN1FlHt5JgkvUlRxeu-1" source="OrIN1FlHt5JgkvUlRxeu-8" target="OrIN1FlHt5JgkvUlRxeu-11" edge="1">
                    <mxGeometry relative="1" as="geometry"/>
                </mxCell>
                <mxCell id="OrIN1FlHt5JgkvUlRxeu-8" value="30" style="ellipse;whiteSpace=wrap;html=1;aspect=fixed;fontFamily=Fira Code;fillColor=#CC0000;" parent="OrIN1FlHt5JgkvUlRxeu-1" vertex="1">
                    <mxGeometry x="640" y="120" width="40" height="40" as="geometry"/>
                </mxCell>
                <mxCell id="OrIN1FlHt5JgkvUlRxeu-9" value="20" style="ellipse;whiteSpace=wrap;html=1;aspect=fixed;fontFamily=Fira Code;fillColor=#000000;" parent="OrIN1FlHt5JgkvUlRxeu-1" vertex="1">
                    <mxGeometry x="440" y="200" width="40" height="40" as="geometry"/>
                </mxCell>
                <mxCell id="OrIN1FlHt5JgkvUlRxeu-10" style="edgeStyle=none;rounded=0;orthogonalLoop=1;jettySize=auto;html=1;exitX=1;exitY=1;exitDx=0;exitDy=0;entryX=0;entryY=0;entryDx=0;entryDy=0;endArrow=none;endFill=0;" parent="OrIN1FlHt5JgkvUlRxeu-1" source="OrIN1FlHt5JgkvUlRxeu-11" target="OrIN1FlHt5JgkvUlRxeu-12" edge="1">
                    <mxGeometry relative="1" as="geometry"/>
                </mxCell>
                <mxCell id="OrIN1FlHt5JgkvUlRxeu-11" value="40" style="ellipse;whiteSpace=wrap;html=1;aspect=fixed;fontFamily=Fira Code;fillColor=#000000;" parent="OrIN1FlHt5JgkvUlRxeu-1" vertex="1">
                    <mxGeometry x="840" y="200" width="40" height="40" as="geometry"/>
                </mxCell>
                <mxCell id="OrIN1FlHt5JgkvUlRxeu-12" value="50" style="ellipse;whiteSpace=wrap;html=1;aspect=fixed;fontFamily=Fira Code;fillColor=#CC0000;" parent="OrIN1FlHt5JgkvUlRxeu-1" vertex="1">
                    <mxGeometry x="1000" y="280" width="40" height="40" as="geometry"/>
                </mxCell>
                <mxCell id="OrIN1FlHt5JgkvUlRxeu-14" style="edgeStyle=none;rounded=0;orthogonalLoop=1;jettySize=auto;html=1;exitX=0;exitY=0;exitDx=0;exitDy=0;entryX=1;entryY=1;entryDx=0;entryDy=0;endArrow=none;endFill=0;" parent="OrIN1FlHt5JgkvUlRxeu-1" source="OrIN1FlHt5JgkvUlRxeu-13" target="OrIN1FlHt5JgkvUlRxeu-12" edge="1">
                    <mxGeometry relative="1" as="geometry"/>
                </mxCell>
                <mxCell id="OrIN1FlHt5JgkvUlRxeu-13" value="60" style="ellipse;whiteSpace=wrap;html=1;aspect=fixed;fontFamily=Fira Code;fillColor=#CC0000;" parent="OrIN1FlHt5JgkvUlRxeu-1" vertex="1">
                    <mxGeometry x="1120" y="360" width="40" height="40" as="geometry"/>
                </mxCell>
            </root>
        </mxGraphModel>
    </diagram>
    <diagram name="Copy of Copy of Copy of Copy of Copy of Copy of Copy of Copy of Copy of Copy of Copy of Copy of Copy of Copy of Page-1" id="cjOUHd_aaPsGLgtByYEU">
        <mxGraphModel dx="1402" dy="860" grid="1" gridSize="10" guides="1" tooltips="1" connect="1" arrows="1" fold="1" page="1" pageScale="1" pageWidth="800" pageHeight="800" math="0" shadow="0">
            <root>
                <mxCell id="WGOsFGis9VAe4HIFNZpr-0"/>
                <mxCell id="WGOsFGis9VAe4HIFNZpr-1" parent="WGOsFGis9VAe4HIFNZpr-0"/>
                <mxCell id="WGOsFGis9VAe4HIFNZpr-2" style="edgeStyle=none;rounded=0;orthogonalLoop=1;jettySize=auto;html=1;exitX=1;exitY=1;exitDx=0;exitDy=0;entryX=0;entryY=0;entryDx=0;entryDy=0;endArrow=none;endFill=0;" parent="WGOsFGis9VAe4HIFNZpr-1" source="WGOsFGis9VAe4HIFNZpr-3" target="WGOsFGis9VAe4HIFNZpr-8" edge="1">
                    <mxGeometry relative="1" as="geometry"/>
                </mxCell>
                <mxCell id="WGOsFGis9VAe4HIFNZpr-3" value="10" style="ellipse;whiteSpace=wrap;html=1;aspect=fixed;fontFamily=Fira Code;fillColor=#000000;" parent="WGOsFGis9VAe4HIFNZpr-1" vertex="1">
                    <mxGeometry x="400" y="40" width="40" height="40" as="geometry"/>
                </mxCell>
                <mxCell id="WGOsFGis9VAe4HIFNZpr-4" style="edgeStyle=none;rounded=0;orthogonalLoop=1;jettySize=auto;html=1;exitX=1;exitY=0;exitDx=0;exitDy=0;entryX=0;entryY=1;entryDx=0;entryDy=0;endArrow=none;endFill=0;" parent="WGOsFGis9VAe4HIFNZpr-1" source="WGOsFGis9VAe4HIFNZpr-5" target="WGOsFGis9VAe4HIFNZpr-3" edge="1">
                    <mxGeometry relative="1" as="geometry"/>
                </mxCell>
                <mxCell id="WGOsFGis9VAe4HIFNZpr-5" value="5" style="ellipse;whiteSpace=wrap;html=1;aspect=fixed;fontFamily=Fira Code;fillColor=#000000;" parent="WGOsFGis9VAe4HIFNZpr-1" vertex="1">
                    <mxGeometry x="160" y="120" width="40" height="40" as="geometry"/>
                </mxCell>
                <mxCell id="WGOsFGis9VAe4HIFNZpr-6" style="edgeStyle=none;rounded=0;orthogonalLoop=1;jettySize=auto;html=1;exitX=0;exitY=1;exitDx=0;exitDy=0;entryX=1;entryY=0;entryDx=0;entryDy=0;endArrow=none;endFill=0;" parent="WGOsFGis9VAe4HIFNZpr-1" source="WGOsFGis9VAe4HIFNZpr-8" target="WGOsFGis9VAe4HIFNZpr-9" edge="1">
                    <mxGeometry relative="1" as="geometry"/>
                </mxCell>
                <mxCell id="WGOsFGis9VAe4HIFNZpr-7" style="edgeStyle=none;rounded=0;orthogonalLoop=1;jettySize=auto;html=1;exitX=1;exitY=1;exitDx=0;exitDy=0;entryX=0;entryY=0;entryDx=0;entryDy=0;endArrow=none;endFill=0;" parent="WGOsFGis9VAe4HIFNZpr-1" source="WGOsFGis9VAe4HIFNZpr-8" target="WGOsFGis9VAe4HIFNZpr-11" edge="1">
                    <mxGeometry relative="1" as="geometry"/>
                </mxCell>
                <mxCell id="WGOsFGis9VAe4HIFNZpr-8" value="30" style="ellipse;whiteSpace=wrap;html=1;aspect=fixed;fontFamily=Fira Code;fillColor=#CC0000;" parent="WGOsFGis9VAe4HIFNZpr-1" vertex="1">
                    <mxGeometry x="640" y="120" width="40" height="40" as="geometry"/>
                </mxCell>
                <mxCell id="WGOsFGis9VAe4HIFNZpr-9" value="20" style="ellipse;whiteSpace=wrap;html=1;aspect=fixed;fontFamily=Fira Code;fillColor=#000000;" parent="WGOsFGis9VAe4HIFNZpr-1" vertex="1">
                    <mxGeometry x="440" y="200" width="40" height="40" as="geometry"/>
                </mxCell>
                <mxCell id="Tr7dXgNHVbVOI7sW9EMe-1" style="edgeStyle=none;rounded=0;orthogonalLoop=1;jettySize=auto;html=1;exitX=1;exitY=1;exitDx=0;exitDy=0;entryX=0;entryY=0;entryDx=0;entryDy=0;endArrow=none;endFill=0;" parent="WGOsFGis9VAe4HIFNZpr-1" source="WGOsFGis9VAe4HIFNZpr-11" target="WGOsFGis9VAe4HIFNZpr-14" edge="1">
                    <mxGeometry relative="1" as="geometry"/>
                </mxCell>
                <mxCell id="WGOsFGis9VAe4HIFNZpr-11" value="50" style="ellipse;whiteSpace=wrap;html=1;aspect=fixed;fontFamily=Fira Code;fillColor=#CC0000;" parent="WGOsFGis9VAe4HIFNZpr-1" vertex="1">
                    <mxGeometry x="840" y="200" width="40" height="40" as="geometry"/>
                </mxCell>
                <mxCell id="Tr7dXgNHVbVOI7sW9EMe-0" style="edgeStyle=none;rounded=0;orthogonalLoop=1;jettySize=auto;html=1;exitX=1;exitY=0;exitDx=0;exitDy=0;entryX=0;entryY=1;entryDx=0;entryDy=0;endArrow=none;endFill=0;" parent="WGOsFGis9VAe4HIFNZpr-1" source="WGOsFGis9VAe4HIFNZpr-12" target="WGOsFGis9VAe4HIFNZpr-11" edge="1">
                    <mxGeometry relative="1" as="geometry"/>
                </mxCell>
                <mxCell id="WGOsFGis9VAe4HIFNZpr-12" value="40" style="ellipse;whiteSpace=wrap;html=1;aspect=fixed;fontFamily=Fira Code;fillColor=#000000;" parent="WGOsFGis9VAe4HIFNZpr-1" vertex="1">
                    <mxGeometry x="680" y="280" width="40" height="40" as="geometry"/>
                </mxCell>
                <mxCell id="WGOsFGis9VAe4HIFNZpr-14" value="60" style="ellipse;whiteSpace=wrap;html=1;aspect=fixed;fontFamily=Fira Code;fillColor=#CC0000;" parent="WGOsFGis9VAe4HIFNZpr-1" vertex="1">
                    <mxGeometry x="1000" y="280" width="40" height="40" as="geometry"/>
                </mxCell>
            </root>
        </mxGraphModel>
    </diagram>
    <diagram name="Copy of Copy of Copy of Copy of Copy of Copy of Copy of Copy of Copy of Copy of Copy of Copy of Copy of Copy of Copy of Page-1" id="8emW5FTwS0OcijPxphQc">
        <mxGraphModel dx="1402" dy="860" grid="1" gridSize="10" guides="1" tooltips="1" connect="1" arrows="1" fold="1" page="1" pageScale="1" pageWidth="800" pageHeight="800" math="0" shadow="0">
            <root>
                <mxCell id="59ySCly3P1DrGiRRxcZG-0"/>
                <mxCell id="59ySCly3P1DrGiRRxcZG-1" parent="59ySCly3P1DrGiRRxcZG-0"/>
                <mxCell id="59ySCly3P1DrGiRRxcZG-2" style="edgeStyle=none;rounded=0;orthogonalLoop=1;jettySize=auto;html=1;exitX=1;exitY=1;exitDx=0;exitDy=0;entryX=0;entryY=0;entryDx=0;entryDy=0;endArrow=none;endFill=0;" parent="59ySCly3P1DrGiRRxcZG-1" source="59ySCly3P1DrGiRRxcZG-3" target="59ySCly3P1DrGiRRxcZG-8" edge="1">
                    <mxGeometry relative="1" as="geometry"/>
                </mxCell>
                <mxCell id="59ySCly3P1DrGiRRxcZG-3" value="10" style="ellipse;whiteSpace=wrap;html=1;aspect=fixed;fontFamily=Fira Code;fillColor=#000000;" parent="59ySCly3P1DrGiRRxcZG-1" vertex="1">
                    <mxGeometry x="400" y="40" width="40" height="40" as="geometry"/>
                </mxCell>
                <mxCell id="59ySCly3P1DrGiRRxcZG-4" style="edgeStyle=none;rounded=0;orthogonalLoop=1;jettySize=auto;html=1;exitX=1;exitY=0;exitDx=0;exitDy=0;entryX=0;entryY=1;entryDx=0;entryDy=0;endArrow=none;endFill=0;" parent="59ySCly3P1DrGiRRxcZG-1" source="59ySCly3P1DrGiRRxcZG-5" target="59ySCly3P1DrGiRRxcZG-3" edge="1">
                    <mxGeometry relative="1" as="geometry"/>
                </mxCell>
                <mxCell id="59ySCly3P1DrGiRRxcZG-5" value="5" style="ellipse;whiteSpace=wrap;html=1;aspect=fixed;fontFamily=Fira Code;fillColor=#000000;" parent="59ySCly3P1DrGiRRxcZG-1" vertex="1">
                    <mxGeometry x="160" y="120" width="40" height="40" as="geometry"/>
                </mxCell>
                <mxCell id="59ySCly3P1DrGiRRxcZG-6" style="edgeStyle=none;rounded=0;orthogonalLoop=1;jettySize=auto;html=1;exitX=0;exitY=1;exitDx=0;exitDy=0;entryX=1;entryY=0;entryDx=0;entryDy=0;endArrow=none;endFill=0;" parent="59ySCly3P1DrGiRRxcZG-1" source="59ySCly3P1DrGiRRxcZG-8" target="59ySCly3P1DrGiRRxcZG-9" edge="1">
                    <mxGeometry relative="1" as="geometry"/>
                </mxCell>
                <mxCell id="59ySCly3P1DrGiRRxcZG-7" style="edgeStyle=none;rounded=0;orthogonalLoop=1;jettySize=auto;html=1;exitX=1;exitY=1;exitDx=0;exitDy=0;entryX=0;entryY=0;entryDx=0;entryDy=0;endArrow=none;endFill=0;" parent="59ySCly3P1DrGiRRxcZG-1" source="59ySCly3P1DrGiRRxcZG-8" target="59ySCly3P1DrGiRRxcZG-11" edge="1">
                    <mxGeometry relative="1" as="geometry"/>
                </mxCell>
                <mxCell id="59ySCly3P1DrGiRRxcZG-8" value="30" style="ellipse;whiteSpace=wrap;html=1;aspect=fixed;fontFamily=Fira Code;fillColor=#CC0000;" parent="59ySCly3P1DrGiRRxcZG-1" vertex="1">
                    <mxGeometry x="640" y="120" width="40" height="40" as="geometry"/>
                </mxCell>
                <mxCell id="59ySCly3P1DrGiRRxcZG-9" value="20" style="ellipse;whiteSpace=wrap;html=1;aspect=fixed;fontFamily=Fira Code;fillColor=#000000;" parent="59ySCly3P1DrGiRRxcZG-1" vertex="1">
                    <mxGeometry x="440" y="200" width="40" height="40" as="geometry"/>
                </mxCell>
                <mxCell id="59ySCly3P1DrGiRRxcZG-10" style="edgeStyle=none;rounded=0;orthogonalLoop=1;jettySize=auto;html=1;exitX=1;exitY=1;exitDx=0;exitDy=0;entryX=0;entryY=0;entryDx=0;entryDy=0;endArrow=none;endFill=0;" parent="59ySCly3P1DrGiRRxcZG-1" source="59ySCly3P1DrGiRRxcZG-11" target="59ySCly3P1DrGiRRxcZG-14" edge="1">
                    <mxGeometry relative="1" as="geometry"/>
                </mxCell>
                <mxCell id="59ySCly3P1DrGiRRxcZG-11" value="50" style="ellipse;whiteSpace=wrap;html=1;aspect=fixed;fontFamily=Fira Code;fillColor=#000000;" parent="59ySCly3P1DrGiRRxcZG-1" vertex="1">
                    <mxGeometry x="840" y="200" width="40" height="40" as="geometry"/>
                </mxCell>
                <mxCell id="59ySCly3P1DrGiRRxcZG-12" style="edgeStyle=none;rounded=0;orthogonalLoop=1;jettySize=auto;html=1;exitX=1;exitY=0;exitDx=0;exitDy=0;entryX=0;entryY=1;entryDx=0;entryDy=0;endArrow=none;endFill=0;" parent="59ySCly3P1DrGiRRxcZG-1" source="59ySCly3P1DrGiRRxcZG-13" target="59ySCly3P1DrGiRRxcZG-11" edge="1">
                    <mxGeometry relative="1" as="geometry"/>
                </mxCell>
                <mxCell id="59ySCly3P1DrGiRRxcZG-13" value="40" style="ellipse;whiteSpace=wrap;html=1;aspect=fixed;fontFamily=Fira Code;fillColor=#CC0000;" parent="59ySCly3P1DrGiRRxcZG-1" vertex="1">
                    <mxGeometry x="680" y="280" width="40" height="40" as="geometry"/>
                </mxCell>
                <mxCell id="59ySCly3P1DrGiRRxcZG-14" value="60" style="ellipse;whiteSpace=wrap;html=1;aspect=fixed;fontFamily=Fira Code;fillColor=#CC0000;" parent="59ySCly3P1DrGiRRxcZG-1" vertex="1">
                    <mxGeometry x="1000" y="280" width="40" height="40" as="geometry"/>
                </mxCell>
            </root>
        </mxGraphModel>
    </diagram>
    <diagram name="Copy of Copy of Copy of Copy of Copy of Copy of Copy of Copy of Copy of Copy of Copy of Copy of Copy of Copy of Copy of Copy of Page-1" id="6C-UacXj-zBDLLMXKnpU">
        <mxGraphModel dx="1402" dy="860" grid="1" gridSize="10" guides="1" tooltips="1" connect="1" arrows="1" fold="1" page="1" pageScale="1" pageWidth="800" pageHeight="800" math="0" shadow="0">
            <root>
                <mxCell id="1LDzDqsyjoWtATQOuxc--0"/>
                <mxCell id="1LDzDqsyjoWtATQOuxc--1" parent="1LDzDqsyjoWtATQOuxc--0"/>
                <mxCell id="1LDzDqsyjoWtATQOuxc--2" style="edgeStyle=none;rounded=0;orthogonalLoop=1;jettySize=auto;html=1;exitX=1;exitY=1;exitDx=0;exitDy=0;entryX=0;entryY=0;entryDx=0;entryDy=0;endArrow=none;endFill=0;" parent="1LDzDqsyjoWtATQOuxc--1" source="1LDzDqsyjoWtATQOuxc--3" target="1LDzDqsyjoWtATQOuxc--8" edge="1">
                    <mxGeometry relative="1" as="geometry"/>
                </mxCell>
                <mxCell id="1LDzDqsyjoWtATQOuxc--3" value="10" style="ellipse;whiteSpace=wrap;html=1;aspect=fixed;fontFamily=Fira Code;fillColor=#000000;" parent="1LDzDqsyjoWtATQOuxc--1" vertex="1">
                    <mxGeometry x="400" y="40" width="40" height="40" as="geometry"/>
                </mxCell>
                <mxCell id="1LDzDqsyjoWtATQOuxc--4" style="edgeStyle=none;rounded=0;orthogonalLoop=1;jettySize=auto;html=1;exitX=1;exitY=0;exitDx=0;exitDy=0;entryX=0;entryY=1;entryDx=0;entryDy=0;endArrow=none;endFill=0;" parent="1LDzDqsyjoWtATQOuxc--1" source="1LDzDqsyjoWtATQOuxc--5" target="1LDzDqsyjoWtATQOuxc--3" edge="1">
                    <mxGeometry relative="1" as="geometry"/>
                </mxCell>
                <mxCell id="1LDzDqsyjoWtATQOuxc--5" value="5" style="ellipse;whiteSpace=wrap;html=1;aspect=fixed;fontFamily=Fira Code;fillColor=#000000;" parent="1LDzDqsyjoWtATQOuxc--1" vertex="1">
                    <mxGeometry x="160" y="120" width="40" height="40" as="geometry"/>
                </mxCell>
                <mxCell id="1LDzDqsyjoWtATQOuxc--6" style="edgeStyle=none;rounded=0;orthogonalLoop=1;jettySize=auto;html=1;exitX=0;exitY=1;exitDx=0;exitDy=0;entryX=1;entryY=0;entryDx=0;entryDy=0;endArrow=none;endFill=0;" parent="1LDzDqsyjoWtATQOuxc--1" source="1LDzDqsyjoWtATQOuxc--8" target="1LDzDqsyjoWtATQOuxc--9" edge="1">
                    <mxGeometry relative="1" as="geometry"/>
                </mxCell>
                <mxCell id="1LDzDqsyjoWtATQOuxc--7" style="edgeStyle=none;rounded=0;orthogonalLoop=1;jettySize=auto;html=1;exitX=1;exitY=1;exitDx=0;exitDy=0;entryX=0;entryY=0;entryDx=0;entryDy=0;endArrow=none;endFill=0;" parent="1LDzDqsyjoWtATQOuxc--1" source="1LDzDqsyjoWtATQOuxc--8" target="1LDzDqsyjoWtATQOuxc--11" edge="1">
                    <mxGeometry relative="1" as="geometry"/>
                </mxCell>
                <mxCell id="1LDzDqsyjoWtATQOuxc--8" value="30" style="ellipse;whiteSpace=wrap;html=1;aspect=fixed;fontFamily=Fira Code;fillColor=#CC0000;" parent="1LDzDqsyjoWtATQOuxc--1" vertex="1">
                    <mxGeometry x="640" y="120" width="40" height="40" as="geometry"/>
                </mxCell>
                <mxCell id="1LDzDqsyjoWtATQOuxc--9" value="20" style="ellipse;whiteSpace=wrap;html=1;aspect=fixed;fontFamily=Fira Code;fillColor=#000000;" parent="1LDzDqsyjoWtATQOuxc--1" vertex="1">
                    <mxGeometry x="440" y="200" width="40" height="40" as="geometry"/>
                </mxCell>
                <mxCell id="1LDzDqsyjoWtATQOuxc--10" style="edgeStyle=none;rounded=0;orthogonalLoop=1;jettySize=auto;html=1;exitX=1;exitY=1;exitDx=0;exitDy=0;entryX=0;entryY=0;entryDx=0;entryDy=0;endArrow=none;endFill=0;" parent="1LDzDqsyjoWtATQOuxc--1" source="1LDzDqsyjoWtATQOuxc--11" target="1LDzDqsyjoWtATQOuxc--14" edge="1">
                    <mxGeometry relative="1" as="geometry"/>
                </mxCell>
                <mxCell id="1LDzDqsyjoWtATQOuxc--11" value="50" style="ellipse;whiteSpace=wrap;html=1;aspect=fixed;fontFamily=Fira Code;fillColor=#000000;" parent="1LDzDqsyjoWtATQOuxc--1" vertex="1">
                    <mxGeometry x="840" y="200" width="40" height="40" as="geometry"/>
                </mxCell>
                <mxCell id="1LDzDqsyjoWtATQOuxc--12" style="edgeStyle=none;rounded=0;orthogonalLoop=1;jettySize=auto;html=1;exitX=1;exitY=0;exitDx=0;exitDy=0;entryX=0;entryY=1;entryDx=0;entryDy=0;endArrow=none;endFill=0;" parent="1LDzDqsyjoWtATQOuxc--1" source="1LDzDqsyjoWtATQOuxc--13" target="1LDzDqsyjoWtATQOuxc--11" edge="1">
                    <mxGeometry relative="1" as="geometry"/>
                </mxCell>
                <mxCell id="1LDzDqsyjoWtATQOuxc--13" value="40" style="ellipse;whiteSpace=wrap;html=1;aspect=fixed;fontFamily=Fira Code;fillColor=#CC0000;" parent="1LDzDqsyjoWtATQOuxc--1" vertex="1">
                    <mxGeometry x="680" y="280" width="40" height="40" as="geometry"/>
                </mxCell>
                <mxCell id="1LDzDqsyjoWtATQOuxc--16" style="edgeStyle=none;rounded=0;orthogonalLoop=1;jettySize=auto;html=1;exitX=1;exitY=1;exitDx=0;exitDy=0;entryX=0;entryY=0;entryDx=0;entryDy=0;endArrow=none;endFill=0;" parent="1LDzDqsyjoWtATQOuxc--1" source="1LDzDqsyjoWtATQOuxc--14" target="1LDzDqsyjoWtATQOuxc--15" edge="1">
                    <mxGeometry relative="1" as="geometry"/>
                </mxCell>
                <mxCell id="1LDzDqsyjoWtATQOuxc--14" value="60" style="ellipse;whiteSpace=wrap;html=1;aspect=fixed;fontFamily=Fira Code;fillColor=#CC0000;" parent="1LDzDqsyjoWtATQOuxc--1" vertex="1">
                    <mxGeometry x="1000" y="280" width="40" height="40" as="geometry"/>
                </mxCell>
                <mxCell id="1LDzDqsyjoWtATQOuxc--15" value="70" style="ellipse;whiteSpace=wrap;html=1;aspect=fixed;fontFamily=Fira Code;fillColor=#CC0000;" parent="1LDzDqsyjoWtATQOuxc--1" vertex="1">
                    <mxGeometry x="1120" y="360" width="40" height="40" as="geometry"/>
                </mxCell>
            </root>
        </mxGraphModel>
    </diagram>
    <diagram name="Copy of Copy of Copy of Copy of Copy of Copy of Copy of Copy of Copy of Copy of Copy of Copy of Copy of Copy of Copy of Copy of Copy of Page-1" id="mcU-lM10-o84lsz3jNdX">
        <mxGraphModel dx="1402" dy="860" grid="1" gridSize="10" guides="1" tooltips="1" connect="1" arrows="1" fold="1" page="1" pageScale="1" pageWidth="800" pageHeight="800" math="0" shadow="0">
            <root>
                <mxCell id="oJ7Mdur_F-BUqd6-wAV9-0"/>
                <mxCell id="oJ7Mdur_F-BUqd6-wAV9-1" parent="oJ7Mdur_F-BUqd6-wAV9-0"/>
                <mxCell id="oJ7Mdur_F-BUqd6-wAV9-2" style="edgeStyle=none;rounded=0;orthogonalLoop=1;jettySize=auto;html=1;exitX=1;exitY=1;exitDx=0;exitDy=0;entryX=0;entryY=0;entryDx=0;entryDy=0;endArrow=none;endFill=0;" parent="oJ7Mdur_F-BUqd6-wAV9-1" source="oJ7Mdur_F-BUqd6-wAV9-3" target="oJ7Mdur_F-BUqd6-wAV9-8" edge="1">
                    <mxGeometry relative="1" as="geometry"/>
                </mxCell>
                <mxCell id="oJ7Mdur_F-BUqd6-wAV9-3" value="10" style="ellipse;whiteSpace=wrap;html=1;aspect=fixed;fontFamily=Fira Code;fillColor=#000000;" parent="oJ7Mdur_F-BUqd6-wAV9-1" vertex="1">
                    <mxGeometry x="400" y="40" width="40" height="40" as="geometry"/>
                </mxCell>
                <mxCell id="oJ7Mdur_F-BUqd6-wAV9-4" style="edgeStyle=none;rounded=0;orthogonalLoop=1;jettySize=auto;html=1;exitX=1;exitY=0;exitDx=0;exitDy=0;entryX=0;entryY=1;entryDx=0;entryDy=0;endArrow=none;endFill=0;" parent="oJ7Mdur_F-BUqd6-wAV9-1" source="oJ7Mdur_F-BUqd6-wAV9-5" target="oJ7Mdur_F-BUqd6-wAV9-3" edge="1">
                    <mxGeometry relative="1" as="geometry"/>
                </mxCell>
                <mxCell id="oJ7Mdur_F-BUqd6-wAV9-5" value="5" style="ellipse;whiteSpace=wrap;html=1;aspect=fixed;fontFamily=Fira Code;fillColor=#000000;" parent="oJ7Mdur_F-BUqd6-wAV9-1" vertex="1">
                    <mxGeometry x="160" y="120" width="40" height="40" as="geometry"/>
                </mxCell>
                <mxCell id="oJ7Mdur_F-BUqd6-wAV9-6" style="edgeStyle=none;rounded=0;orthogonalLoop=1;jettySize=auto;html=1;exitX=0;exitY=1;exitDx=0;exitDy=0;entryX=1;entryY=0;entryDx=0;entryDy=0;endArrow=none;endFill=0;" parent="oJ7Mdur_F-BUqd6-wAV9-1" source="oJ7Mdur_F-BUqd6-wAV9-8" target="oJ7Mdur_F-BUqd6-wAV9-9" edge="1">
                    <mxGeometry relative="1" as="geometry"/>
                </mxCell>
                <mxCell id="oJ7Mdur_F-BUqd6-wAV9-7" style="edgeStyle=none;rounded=0;orthogonalLoop=1;jettySize=auto;html=1;exitX=1;exitY=1;exitDx=0;exitDy=0;entryX=0;entryY=0;entryDx=0;entryDy=0;endArrow=none;endFill=0;" parent="oJ7Mdur_F-BUqd6-wAV9-1" source="oJ7Mdur_F-BUqd6-wAV9-8" target="oJ7Mdur_F-BUqd6-wAV9-11" edge="1">
                    <mxGeometry relative="1" as="geometry"/>
                </mxCell>
                <mxCell id="oJ7Mdur_F-BUqd6-wAV9-8" value="30" style="ellipse;whiteSpace=wrap;html=1;aspect=fixed;fontFamily=Fira Code;fillColor=#CC0000;" parent="oJ7Mdur_F-BUqd6-wAV9-1" vertex="1">
                    <mxGeometry x="640" y="120" width="40" height="40" as="geometry"/>
                </mxCell>
                <mxCell id="oJ7Mdur_F-BUqd6-wAV9-9" value="20" style="ellipse;whiteSpace=wrap;html=1;aspect=fixed;fontFamily=Fira Code;fillColor=#000000;" parent="oJ7Mdur_F-BUqd6-wAV9-1" vertex="1">
                    <mxGeometry x="440" y="200" width="40" height="40" as="geometry"/>
                </mxCell>
                <mxCell id="oJ7Mdur_F-BUqd6-wAV9-10" style="edgeStyle=none;rounded=0;orthogonalLoop=1;jettySize=auto;html=1;exitX=1;exitY=1;exitDx=0;exitDy=0;entryX=0;entryY=0;entryDx=0;entryDy=0;endArrow=none;endFill=0;" parent="oJ7Mdur_F-BUqd6-wAV9-1" source="oJ7Mdur_F-BUqd6-wAV9-11" target="oJ7Mdur_F-BUqd6-wAV9-15" edge="1">
                    <mxGeometry relative="1" as="geometry"/>
                </mxCell>
                <mxCell id="oJ7Mdur_F-BUqd6-wAV9-11" value="50" style="ellipse;whiteSpace=wrap;html=1;aspect=fixed;fontFamily=Fira Code;fillColor=#CC0000;" parent="oJ7Mdur_F-BUqd6-wAV9-1" vertex="1">
                    <mxGeometry x="840" y="200" width="40" height="40" as="geometry"/>
                </mxCell>
                <mxCell id="oJ7Mdur_F-BUqd6-wAV9-12" style="edgeStyle=none;rounded=0;orthogonalLoop=1;jettySize=auto;html=1;exitX=1;exitY=0;exitDx=0;exitDy=0;entryX=0;entryY=1;entryDx=0;entryDy=0;endArrow=none;endFill=0;" parent="oJ7Mdur_F-BUqd6-wAV9-1" source="oJ7Mdur_F-BUqd6-wAV9-13" target="oJ7Mdur_F-BUqd6-wAV9-11" edge="1">
                    <mxGeometry relative="1" as="geometry"/>
                </mxCell>
                <mxCell id="oJ7Mdur_F-BUqd6-wAV9-13" value="40" style="ellipse;whiteSpace=wrap;html=1;aspect=fixed;fontFamily=Fira Code;fillColor=#000000;" parent="oJ7Mdur_F-BUqd6-wAV9-1" vertex="1">
                    <mxGeometry x="680" y="280" width="40" height="40" as="geometry"/>
                </mxCell>
                <mxCell id="oJ7Mdur_F-BUqd6-wAV9-14" style="edgeStyle=none;rounded=0;orthogonalLoop=1;jettySize=auto;html=1;exitX=1;exitY=1;exitDx=0;exitDy=0;entryX=0;entryY=0;entryDx=0;entryDy=0;endArrow=none;endFill=0;" parent="oJ7Mdur_F-BUqd6-wAV9-1" source="oJ7Mdur_F-BUqd6-wAV9-15" target="oJ7Mdur_F-BUqd6-wAV9-16" edge="1">
                    <mxGeometry relative="1" as="geometry"/>
                </mxCell>
                <mxCell id="oJ7Mdur_F-BUqd6-wAV9-15" value="60" style="ellipse;whiteSpace=wrap;html=1;aspect=fixed;fontFamily=Fira Code;fillColor=#000000;" parent="oJ7Mdur_F-BUqd6-wAV9-1" vertex="1">
                    <mxGeometry x="1000" y="280" width="40" height="40" as="geometry"/>
                </mxCell>
                <mxCell id="oJ7Mdur_F-BUqd6-wAV9-16" value="70" style="ellipse;whiteSpace=wrap;html=1;aspect=fixed;fontFamily=Fira Code;fillColor=#CC0000;" parent="oJ7Mdur_F-BUqd6-wAV9-1" vertex="1">
                    <mxGeometry x="1120" y="360" width="40" height="40" as="geometry"/>
                </mxCell>
            </root>
        </mxGraphModel>
    </diagram>
    <diagram name="Copy of Copy of Copy of Copy of Copy of Copy of Copy of Copy of Copy of Copy of Copy of Copy of Copy of Copy of Copy of Copy of Copy of Copy of Page-1" id="Au2hCr0BirkRcW1p8fCv">
        <mxGraphModel dx="2202" dy="860" grid="1" gridSize="10" guides="1" tooltips="1" connect="1" arrows="1" fold="1" page="1" pageScale="1" pageWidth="800" pageHeight="800" math="0" shadow="0">
            <root>
                <mxCell id="VidZzqZrrVVY_v9KotPE-0"/>
                <mxCell id="VidZzqZrrVVY_v9KotPE-1" parent="VidZzqZrrVVY_v9KotPE-0"/>
                <mxCell id="VidZzqZrrVVY_v9KotPE-2" style="edgeStyle=none;rounded=0;orthogonalLoop=1;jettySize=auto;html=1;exitX=1;exitY=1;exitDx=0;exitDy=0;entryX=0;entryY=0;entryDx=0;entryDy=0;endArrow=none;endFill=0;" parent="VidZzqZrrVVY_v9KotPE-1" source="VidZzqZrrVVY_v9KotPE-3" target="VidZzqZrrVVY_v9KotPE-8" edge="1">
                    <mxGeometry relative="1" as="geometry"/>
                </mxCell>
                <mxCell id="VidZzqZrrVVY_v9KotPE-3" value="30" style="ellipse;whiteSpace=wrap;html=1;aspect=fixed;fontFamily=Fira Code;fillColor=#CC0000;" parent="VidZzqZrrVVY_v9KotPE-1" vertex="1">
                    <mxGeometry x="400" y="40" width="40" height="40" as="geometry"/>
                </mxCell>
                <mxCell id="VidZzqZrrVVY_v9KotPE-4" style="edgeStyle=none;rounded=0;orthogonalLoop=1;jettySize=auto;html=1;exitX=1;exitY=0;exitDx=0;exitDy=0;entryX=0;entryY=1;entryDx=0;entryDy=0;endArrow=none;endFill=0;" parent="VidZzqZrrVVY_v9KotPE-1" source="VidZzqZrrVVY_v9KotPE-5" target="VidZzqZrrVVY_v9KotPE-3" edge="1">
                    <mxGeometry relative="1" as="geometry"/>
                </mxCell>
                <mxCell id="VidZzqZrrVVY_v9KotPE-19" style="edgeStyle=none;rounded=0;orthogonalLoop=1;jettySize=auto;html=1;exitX=1;exitY=1;exitDx=0;exitDy=0;entryX=0;entryY=0;entryDx=0;entryDy=0;endArrow=none;endFill=0;" parent="VidZzqZrrVVY_v9KotPE-1" source="VidZzqZrrVVY_v9KotPE-5" target="VidZzqZrrVVY_v9KotPE-9" edge="1">
                    <mxGeometry relative="1" as="geometry"/>
                </mxCell>
                <mxCell id="VidZzqZrrVVY_v9KotPE-5" value="10" style="ellipse;whiteSpace=wrap;html=1;aspect=fixed;fontFamily=Fira Code;fillColor=#CC0000;" parent="VidZzqZrrVVY_v9KotPE-1" vertex="1">
                    <mxGeometry x="160" y="120" width="40" height="40" as="geometry"/>
                </mxCell>
                <mxCell id="VidZzqZrrVVY_v9KotPE-7" style="edgeStyle=none;rounded=0;orthogonalLoop=1;jettySize=auto;html=1;exitX=1;exitY=1;exitDx=0;exitDy=0;entryX=0;entryY=0;entryDx=0;entryDy=0;endArrow=none;endFill=0;" parent="VidZzqZrrVVY_v9KotPE-1" source="VidZzqZrrVVY_v9KotPE-8" target="VidZzqZrrVVY_v9KotPE-11" edge="1">
                    <mxGeometry relative="1" as="geometry"/>
                </mxCell>
                <mxCell id="VidZzqZrrVVY_v9KotPE-8" value="50" style="ellipse;whiteSpace=wrap;html=1;aspect=fixed;fontFamily=Fira Code;fillColor=#CC0000;" parent="VidZzqZrrVVY_v9KotPE-1" vertex="1">
                    <mxGeometry x="640" y="120" width="40" height="40" as="geometry"/>
                </mxCell>
                <mxCell id="VidZzqZrrVVY_v9KotPE-9" value="20" style="ellipse;whiteSpace=wrap;html=1;aspect=fixed;fontFamily=Fira Code;fillColor=#000000;" parent="VidZzqZrrVVY_v9KotPE-1" vertex="1">
                    <mxGeometry x="360" y="200" width="40" height="40" as="geometry"/>
                </mxCell>
                <mxCell id="VidZzqZrrVVY_v9KotPE-10" style="edgeStyle=none;rounded=0;orthogonalLoop=1;jettySize=auto;html=1;exitX=1;exitY=1;exitDx=0;exitDy=0;entryX=0;entryY=0;entryDx=0;entryDy=0;endArrow=none;endFill=0;" parent="VidZzqZrrVVY_v9KotPE-1" source="VidZzqZrrVVY_v9KotPE-11" target="VidZzqZrrVVY_v9KotPE-15" edge="1">
                    <mxGeometry relative="1" as="geometry"/>
                </mxCell>
                <mxCell id="VidZzqZrrVVY_v9KotPE-11" value="60" style="ellipse;whiteSpace=wrap;html=1;aspect=fixed;fontFamily=Fira Code;fillColor=#000000;" parent="VidZzqZrrVVY_v9KotPE-1" vertex="1">
                    <mxGeometry x="840" y="200" width="40" height="40" as="geometry"/>
                </mxCell>
                <mxCell id="VidZzqZrrVVY_v9KotPE-20" style="edgeStyle=none;rounded=0;orthogonalLoop=1;jettySize=auto;html=1;exitX=1;exitY=0;exitDx=0;exitDy=0;entryX=0;entryY=1;entryDx=0;entryDy=0;endArrow=none;endFill=0;" parent="VidZzqZrrVVY_v9KotPE-1" source="VidZzqZrrVVY_v9KotPE-13" target="VidZzqZrrVVY_v9KotPE-8" edge="1">
                    <mxGeometry relative="1" as="geometry"/>
                </mxCell>
                <mxCell id="VidZzqZrrVVY_v9KotPE-13" value="40" style="ellipse;whiteSpace=wrap;html=1;aspect=fixed;fontFamily=Fira Code;fillColor=#000000;" parent="VidZzqZrrVVY_v9KotPE-1" vertex="1">
                    <mxGeometry x="440" y="200" width="40" height="40" as="geometry"/>
                </mxCell>
                <mxCell id="VidZzqZrrVVY_v9KotPE-15" value="70" style="ellipse;whiteSpace=wrap;html=1;aspect=fixed;fontFamily=Fira Code;fillColor=#CC0000;" parent="VidZzqZrrVVY_v9KotPE-1" vertex="1">
                    <mxGeometry x="1000" y="280" width="40" height="40" as="geometry"/>
                </mxCell>
                <mxCell id="VidZzqZrrVVY_v9KotPE-18" style="edgeStyle=none;rounded=0;orthogonalLoop=1;jettySize=auto;html=1;exitX=1;exitY=0;exitDx=0;exitDy=0;entryX=0;entryY=1;entryDx=0;entryDy=0;endArrow=none;endFill=0;" parent="VidZzqZrrVVY_v9KotPE-1" source="VidZzqZrrVVY_v9KotPE-17" target="VidZzqZrrVVY_v9KotPE-5" edge="1">
                    <mxGeometry relative="1" as="geometry"/>
                </mxCell>
                <mxCell id="VidZzqZrrVVY_v9KotPE-17" value="5" style="ellipse;whiteSpace=wrap;html=1;aspect=fixed;fontFamily=Fira Code;fillColor=#000000;" parent="VidZzqZrrVVY_v9KotPE-1" vertex="1">
                    <mxGeometry x="-40" y="200" width="40" height="40" as="geometry"/>
                </mxCell>
            </root>
        </mxGraphModel>
    </diagram>
    <diagram name="Copy of Copy of Copy of Copy of Copy of Copy of Copy of Copy of Copy of Copy of Copy of Copy of Copy of Copy of Copy of Copy of Copy of Copy of Copy of Page-1" id="POWfGmSujqtz8YP3_ufy">
        <mxGraphModel dx="2202" dy="860" grid="1" gridSize="10" guides="1" tooltips="1" connect="1" arrows="1" fold="1" page="1" pageScale="1" pageWidth="800" pageHeight="800" math="0" shadow="0">
            <root>
                <mxCell id="SVxsiVjKevizyuKsb6-B-0"/>
                <mxCell id="SVxsiVjKevizyuKsb6-B-1" parent="SVxsiVjKevizyuKsb6-B-0"/>
                <mxCell id="SVxsiVjKevizyuKsb6-B-2" style="edgeStyle=none;rounded=0;orthogonalLoop=1;jettySize=auto;html=1;exitX=1;exitY=1;exitDx=0;exitDy=0;entryX=0;entryY=0;entryDx=0;entryDy=0;endArrow=none;endFill=0;" parent="SVxsiVjKevizyuKsb6-B-1" source="SVxsiVjKevizyuKsb6-B-3" target="SVxsiVjKevizyuKsb6-B-8" edge="1">
                    <mxGeometry relative="1" as="geometry"/>
                </mxCell>
                <mxCell id="SVxsiVjKevizyuKsb6-B-3" value="30" style="ellipse;whiteSpace=wrap;html=1;aspect=fixed;fontFamily=Fira Code;fillColor=#000000;" parent="SVxsiVjKevizyuKsb6-B-1" vertex="1">
                    <mxGeometry x="400" y="40" width="40" height="40" as="geometry"/>
                </mxCell>
                <mxCell id="SVxsiVjKevizyuKsb6-B-4" style="edgeStyle=none;rounded=0;orthogonalLoop=1;jettySize=auto;html=1;exitX=1;exitY=0;exitDx=0;exitDy=0;entryX=0;entryY=1;entryDx=0;entryDy=0;endArrow=none;endFill=0;" parent="SVxsiVjKevizyuKsb6-B-1" source="SVxsiVjKevizyuKsb6-B-6" target="SVxsiVjKevizyuKsb6-B-3" edge="1">
                    <mxGeometry relative="1" as="geometry"/>
                </mxCell>
                <mxCell id="SVxsiVjKevizyuKsb6-B-5" style="edgeStyle=none;rounded=0;orthogonalLoop=1;jettySize=auto;html=1;exitX=1;exitY=1;exitDx=0;exitDy=0;entryX=0;entryY=0;entryDx=0;entryDy=0;endArrow=none;endFill=0;" parent="SVxsiVjKevizyuKsb6-B-1" source="SVxsiVjKevizyuKsb6-B-6" target="SVxsiVjKevizyuKsb6-B-9" edge="1">
                    <mxGeometry relative="1" as="geometry"/>
                </mxCell>
                <mxCell id="SVxsiVjKevizyuKsb6-B-6" value="10" style="ellipse;whiteSpace=wrap;html=1;aspect=fixed;fontFamily=Fira Code;fillColor=#CC0000;" parent="SVxsiVjKevizyuKsb6-B-1" vertex="1">
                    <mxGeometry x="160" y="120" width="40" height="40" as="geometry"/>
                </mxCell>
                <mxCell id="SVxsiVjKevizyuKsb6-B-7" style="edgeStyle=none;rounded=0;orthogonalLoop=1;jettySize=auto;html=1;exitX=1;exitY=1;exitDx=0;exitDy=0;entryX=0;entryY=0;entryDx=0;entryDy=0;endArrow=none;endFill=0;" parent="SVxsiVjKevizyuKsb6-B-1" source="SVxsiVjKevizyuKsb6-B-8" target="SVxsiVjKevizyuKsb6-B-11" edge="1">
                    <mxGeometry relative="1" as="geometry"/>
                </mxCell>
                <mxCell id="SVxsiVjKevizyuKsb6-B-8" value="50" style="ellipse;whiteSpace=wrap;html=1;aspect=fixed;fontFamily=Fira Code;fillColor=#CC0000;" parent="SVxsiVjKevizyuKsb6-B-1" vertex="1">
                    <mxGeometry x="640" y="120" width="40" height="40" as="geometry"/>
                </mxCell>
                <mxCell id="SVxsiVjKevizyuKsb6-B-9" value="20" style="ellipse;whiteSpace=wrap;html=1;aspect=fixed;fontFamily=Fira Code;fillColor=#000000;" parent="SVxsiVjKevizyuKsb6-B-1" vertex="1">
                    <mxGeometry x="360" y="200" width="40" height="40" as="geometry"/>
                </mxCell>
                <mxCell id="SVxsiVjKevizyuKsb6-B-10" style="edgeStyle=none;rounded=0;orthogonalLoop=1;jettySize=auto;html=1;exitX=1;exitY=1;exitDx=0;exitDy=0;entryX=0;entryY=0;entryDx=0;entryDy=0;endArrow=none;endFill=0;" parent="SVxsiVjKevizyuKsb6-B-1" source="SVxsiVjKevizyuKsb6-B-11" target="SVxsiVjKevizyuKsb6-B-14" edge="1">
                    <mxGeometry relative="1" as="geometry"/>
                </mxCell>
                <mxCell id="SVxsiVjKevizyuKsb6-B-11" value="60" style="ellipse;whiteSpace=wrap;html=1;aspect=fixed;fontFamily=Fira Code;fillColor=#000000;" parent="SVxsiVjKevizyuKsb6-B-1" vertex="1">
                    <mxGeometry x="840" y="200" width="40" height="40" as="geometry"/>
                </mxCell>
                <mxCell id="SVxsiVjKevizyuKsb6-B-12" style="edgeStyle=none;rounded=0;orthogonalLoop=1;jettySize=auto;html=1;exitX=1;exitY=0;exitDx=0;exitDy=0;entryX=0;entryY=1;entryDx=0;entryDy=0;endArrow=none;endFill=0;" parent="SVxsiVjKevizyuKsb6-B-1" source="SVxsiVjKevizyuKsb6-B-13" target="SVxsiVjKevizyuKsb6-B-8" edge="1">
                    <mxGeometry relative="1" as="geometry"/>
                </mxCell>
                <mxCell id="SVxsiVjKevizyuKsb6-B-13" value="40" style="ellipse;whiteSpace=wrap;html=1;aspect=fixed;fontFamily=Fira Code;fillColor=#000000;" parent="SVxsiVjKevizyuKsb6-B-1" vertex="1">
                    <mxGeometry x="440" y="200" width="40" height="40" as="geometry"/>
                </mxCell>
                <mxCell id="SVxsiVjKevizyuKsb6-B-14" value="70" style="ellipse;whiteSpace=wrap;html=1;aspect=fixed;fontFamily=Fira Code;fillColor=#CC0000;" parent="SVxsiVjKevizyuKsb6-B-1" vertex="1">
                    <mxGeometry x="1000" y="280" width="40" height="40" as="geometry"/>
                </mxCell>
                <mxCell id="SVxsiVjKevizyuKsb6-B-15" style="edgeStyle=none;rounded=0;orthogonalLoop=1;jettySize=auto;html=1;exitX=1;exitY=0;exitDx=0;exitDy=0;entryX=0;entryY=1;entryDx=0;entryDy=0;endArrow=none;endFill=0;" parent="SVxsiVjKevizyuKsb6-B-1" source="SVxsiVjKevizyuKsb6-B-16" target="SVxsiVjKevizyuKsb6-B-6" edge="1">
                    <mxGeometry relative="1" as="geometry"/>
                </mxCell>
                <mxCell id="SVxsiVjKevizyuKsb6-B-16" value="5" style="ellipse;whiteSpace=wrap;html=1;aspect=fixed;fontFamily=Fira Code;fillColor=#000000;" parent="SVxsiVjKevizyuKsb6-B-1" vertex="1">
                    <mxGeometry x="-40" y="200" width="40" height="40" as="geometry"/>
                </mxCell>
            </root>
        </mxGraphModel>
    </diagram>
</mxfile>